<?xml version="1.0" encoding="UTF-8" standalone="no"?>
<!-- Created with Inkscape (http://www.inkscape.org/) -->

<svg
   xmlns:dc="http://purl.org/dc/elements/1.1/"
   xmlns:cc="http://creativecommons.org/ns#"
   xmlns:rdf="http://www.w3.org/1999/02/22-rdf-syntax-ns#"
   xmlns:svg="http://www.w3.org/2000/svg"
   xmlns="http://www.w3.org/2000/svg"
   xmlns:sodipodi="http://sodipodi.sourceforge.net/DTD/sodipodi-0.dtd"
   xmlns:inkscape="http://www.inkscape.org/namespaces/inkscape"
   width="162.30626mm"
   height="147.94199mm"
   viewBox="0 0 162.30626 147.94199"
   version="1.1"
   id="svg8"
   inkscape:version="0.92.3 (2405546, 2018-03-11)"
   sodipodi:docname="lms-community.svg">
  <defs
     id="defs2" />
  <sodipodi:namedview
     id="base"
     pagecolor="#ffffff"
     bordercolor="#666666"
     borderopacity="1.0"
     inkscape:pageopacity="0.0"
     inkscape:pageshadow="2"
     inkscape:zoom="0.7"
     inkscape:cx="406.61125"
     inkscape:cy="275.21105"
     inkscape:document-units="mm"
     inkscape:current-layer="layer1"
     showgrid="false"
     inkscape:window-width="1366"
     inkscape:window-height="705"
     inkscape:window-x="0"
     inkscape:window-y="30"
     inkscape:window-maximized="1"
     fit-margin-top="0"
     fit-margin-left="0"
     fit-margin-right="0"
     fit-margin-bottom="0" />
  <metadata
     id="metadata5">
    <rdf:RDF>
      <cc:Work
         rdf:about="">
        <dc:format>image/svg+xml</dc:format>
        <dc:type
           rdf:resource="http://purl.org/dc/dcmitype/StillImage" />
        <dc:title></dc:title>
      </cc:Work>
    </rdf:RDF>
  </metadata>
  <g
     inkscape:label="Laag 1"
     inkscape:groupmode="layer"
     id="layer1"
     transform="translate(-13.14184,-65.257349)">
    <rect
       style="opacity:1;fill:#c8c9cc;fill-opacity:1;stroke:#c8c9cc;stroke-width:2.08470535;stroke-miterlimit:4;stroke-dasharray:none;stroke-opacity:1"
       id="rect848-2"
       width="27.340895"
       height="61.986553"
       x="66.420937"
       y="120.63709" />
    <path
       style="fill:#2baaa6;fill-opacity:1;stroke:#2baaa6;stroke-width:3;stroke-linecap:butt;stroke-linejoin:miter;stroke-miterlimit:4;stroke-dasharray:none;stroke-opacity:1"
       d="M 27.121148,119.08392 81.038119,149.21131 109.00841,100.83035 54.201811,71.348213 Z"
       id="path844"
       inkscape:connector-curvature="0"
       sodipodi:nodetypes="ccccc" />
    <circle
       style="opacity:1;fill:#ffffff;fill-opacity:1;stroke:#2baaa6;stroke-width:3;stroke-miterlimit:4;stroke-dasharray:none;stroke-opacity:1"
       id="path815-7"
       cx="-81.81572"
       cy="-65.651085"
       r="27.592262"
       transform="matrix(0.25881905,-0.96592583,-0.96592583,-0.25881905,0,0)" />
    <path
       style="fill:#494949;fill-opacity:1;stroke:#494949;stroke-width:3;stroke-linecap:butt;stroke-linejoin:miter;stroke-miterlimit:4;stroke-dasharray:none;stroke-opacity:1"
       d="M 134.33295,69.458332 79.904192,101.20833 110.52032,147.6994 161.54728,117.46131 Z"
       id="path846"
       inkscape:connector-curvature="0"
       sodipodi:nodetypes="ccccc" />
    <circle
       style="opacity:1;fill:#ffffff;fill-opacity:1;stroke:#494949;stroke-width:3;stroke-miterlimit:4;stroke-dasharray:none;stroke-opacity:1"
       id="path815-3"
       cx="53.260571"
       cy="-165.78517"
       r="27.592262"
       transform="rotate(105)" />
    <rect
       style="opacity:1;fill:#c8c9cc;fill-opacity:1;stroke:#c8c9cc;stroke-width:2.1071403;stroke-miterlimit:4;stroke-dasharray:none;stroke-opacity:1"
       id="rect848"
       width="27.921936"
       height="62.010075"
       x="94.727493"
       y="122.74197" />
    <text
       xml:space="preserve"
       style="font-style:normal;font-weight:normal;font-size:8.46666622px;line-height:1.25;font-family:sans-serif;letter-spacing:0px;word-spacing:0px;fill:#000000;fill-opacity:1;stroke:none;stroke-width:0.26458332"
       x="29.028566"
       y="86.845238"
       id="text858"><tspan
         sodipodi:role="line"
         id="tspan856"
         x="29.028566"
         y="86.845238"
         style="stroke-width:0.26458332">Server</tspan></text>
    <text
       xml:space="preserve"
       style="font-style:normal;font-weight:normal;font-size:8.46666622px;line-height:1.25;font-family:sans-serif;letter-spacing:0px;word-spacing:0px;fill:#000000;fill-opacity:1;stroke:none;stroke-width:0.26458332"
       x="134.7565"
       y="84.440804"
       id="text858-5"><tspan
         sodipodi:role="line"
         id="tspan856-3"
         x="134.7565"
         y="84.440804"
         style="stroke-width:0.26458332">Player</tspan></text>
    <circle
       style="opacity:1;fill:#ffffff;fill-opacity:1;stroke:#c8c9cc;stroke-width:3;stroke-miterlimit:4;stroke-dasharray:none;stroke-opacity:1"
       id="path815-6"
       cx="153.34854"
       cy="-139.01311"
       r="27.592262"
       transform="rotate(105)" />
    <text
       xml:space="preserve"
       style="font-style:normal;font-weight:normal;font-size:8.46666622px;line-height:1.25;font-family:sans-serif;letter-spacing:0px;word-spacing:0px;fill:#000000;fill-opacity:1;stroke:none;stroke-width:0.26458332"
       x="76.263229"
       y="175.30652"
       id="text858-5-5"><tspan
         sodipodi:role="line"
         id="tspan856-3-6"
         x="76.263229"
         y="175.30652"
         style="stroke-width:0.26458332">Controller</tspan></text>
    <circle
       style="opacity:1;fill:#289a69;fill-opacity:1;stroke:#ffffff;stroke-width:3;stroke-miterlimit:4;stroke-dasharray:none;stroke-opacity:1"
       id="path815"
       cx="123.88448"
       cy="96.22921"
       r="27.59226"
       transform="rotate(15)" />
    <text
       xml:space="preserve"
       style="font-style:normal;font-weight:normal;font-size:8.46666622px;line-height:1.25;font-family:sans-serif;letter-spacing:0px;word-spacing:0px;fill:#000000;fill-opacity:1;stroke:none;stroke-width:0.26458332"
       x="93.930664"
       y="120.8631"
       id="text852"><tspan
         sodipodi:role="line"
         id="tspan850"
         x="93.930664"
         y="120.8631"
         style="text-align:center;text-anchor:middle;fill:#ffffff;fill-opacity:1;stroke-width:0.26458332">LMS</tspan><tspan
         sodipodi:role="line"
         x="93.930664"
         y="131.44643"
         style="text-align:center;text-anchor:middle;fill:#ffffff;fill-opacity:1;stroke-width:0.26458332"
         id="tspan854">Community</tspan></text>
    <g
       id="g936"
       transform="matrix(0.84729659,0,0,0.84729659,135.84492,88.886313)">
      <path
         id="path922"
         d="M 0,0 H 24 V 24 H 0 Z"
         inkscape:connector-curvature="0"
         style="fill:none" />
      <path
         id="path924"
         d="M 3.24,6.15 C 2.51,6.43 2,7.17 2,8 v 12 c 0,1.1 0.89,2 2,2 h 16 c 1.11,0 2,-0.9 2,-2 V 8 C 22,6.89 21.11,6 20,6 H 8.3 L 16.56,2.66 15.88,1 Z M 7,20 c -1.66,0 -3,-1.34 -3,-3 0,-1.66 1.34,-3 3,-3 1.66,0 3,1.34 3,3 0,1.66 -1.34,3 -3,3 z m 13,-8 h -2 v -2 h -2 v 2 H 4 V 8 h 16 z"
         inkscape:connector-curvature="0" />
    </g>
    <g
       id="g952"
       transform="matrix(0.8787946,0,0,0.8787946,83.42582,181.01975)">
      <path
         id="path938"
         d="M 0,0 H 24 V 24 H 0 Z"
         inkscape:connector-curvature="0"
         style="fill:none" />
      <path
         id="path940"
         d="M 15,9 H 9 C 8.45,9 8,9.45 8,10 v 12 c 0,0.55 0.45,1 1,1 h 6 c 0.55,0 1,-0.45 1,-1 V 10 C 16,9.45 15.55,9 15,9 Z m -3,6 c -1.1,0 -2,-0.9 -2,-2 0,-1.1 0.9,-2 2,-2 1.1,0 2,0.9 2,2 0,1.1 -0.9,2 -2,2 z M 7.05,6.05 8.46,7.46 C 9.37,6.56 10.62,6 12,6 c 1.38,0 2.63,0.56 3.54,1.46 L 16.95,6.05 C 15.68,4.78 13.93,4 12,4 10.07,4 8.32,4.78 7.05,6.05 Z M 12,0 C 8.96,0 6.21,1.23 4.22,3.22 L 5.63,4.63 C 7.26,3.01 9.51,2 12,2 c 2.49,0 4.74,1.01 6.36,2.64 L 19.77,3.23 C 17.79,1.23 15.04,0 12,0 Z"
         inkscape:connector-curvature="0" />
    </g>
    <g
       id="g968"
       transform="matrix(0.84729662,0,0,0.84729662,30.825317,91.340463)">
      <path
         id="path954"
         d="M 0,0 H 24 V 24 H 0 Z"
         inkscape:connector-curvature="0"
         style="fill:none" />
      <path
         id="path956"
         d="M 2,20 H 22 V 16 H 2 Z m 2,-3 h 2 v 2 H 4 Z M 2,4 V 8 H 22 V 4 Z M 6,7 H 4 V 5 H 6 Z M 2,14 H 22 V 10 H 2 Z m 2,-3 h 2 v 2 H 4 Z"
         inkscape:connector-curvature="0" />
    </g>
  </g>
</svg>
