<?xml version="1.0" encoding="UTF-8" standalone="no"?>
<!-- Created with Inkscape (http://www.inkscape.org/) -->

<svg
   version="1.1"
   id="svg2"
   width="116"
   height="86.666664"
   viewBox="0 0 116 86.666664"
   sodipodi:docname="Lyrion - logo - lime.eps"
   xmlns:inkscape="http://www.inkscape.org/namespaces/inkscape"
   xmlns:sodipodi="http://sodipodi.sourceforge.net/DTD/sodipodi-0.dtd"
   xmlns="http://www.w3.org/2000/svg"
   xmlns:svg="http://www.w3.org/2000/svg">
  <defs
     id="defs6" />
  <sodipodi:namedview
     id="namedview4"
     pagecolor="#ffffff"
     bordercolor="#000000"
     borderopacity="0.25"
     inkscape:showpageshadow="2"
     inkscape:pageopacity="0.0"
     inkscape:pagecheckerboard="0"
     inkscape:deskcolor="#d1d1d1" />
  <g
     id="g8"
     inkscape:groupmode="layer"
     inkscape:label="ink_ext_XXXXXX"
     transform="matrix(1.3333333,0,0,-1.3333333,0,86.666667)">
    <g
       id="g10"
       transform="scale(0.1)">
      <path
         d="m 15,378.738 v 0 c 8.2852,0 15,-6.715 15,-15 V 289.98 c 0,-8.285 -6.7148,-15 -15,-15 v 0 c -8.28516,0 -15,6.715 -15,15 v 73.758 c 0,8.285 6.71484,15 15,15 z"
         style="fill:#e4fdc3;fill-opacity:1;fill-rule:nonzero;stroke:none"
         id="path12" />
      <path
         d="m 108.219,492.875 v 0 c 8.285,0 15,-6.715 15,-15 V 175.84 c 0,-8.281 -6.715,-15 -15,-15 v 0 c -8.2815,0 -15.0002,6.719 -15.0002,15 v 302.035 c 0,8.285 6.7187,15 15.0002,15 z"
         style="fill:#e4fdc3;fill-opacity:1;fill-rule:nonzero;stroke:none"
         id="path14" />
      <path
         d="m 201.441,607.012 v 0 c 8.282,0 15,-6.715 15,-15 V 61.7031 c 0,-8.2812 -6.718,-15 -15,-15 v 0 c -8.285,0 -15,6.7188 -15,15 V 592.012 c 0,8.285 6.715,15 15,15 z"
         style="fill:#e4fdc3;fill-opacity:1;fill-rule:nonzero;stroke:none"
         id="path16" />
      <path
         d="m 481.102,650 v 0 c 8.285,0 15,-6.715 15,-15 V 18.7188 c 0,-8.2852 -6.715,-15.00005 -15,-15.00005 v 0 c -8.286,0 -15,6.71485 -15,15.00005 V 635 c 0,8.285 6.714,15 15,15 z"
         style="fill:#e4fdc3;fill-opacity:1;fill-rule:nonzero;stroke:none"
         id="path18" />
      <path
         d="m 294.66,432.102 v 0 c 8.285,0 15,-6.715 15,-15 V 236.617 c 0,-8.285 -6.715,-15 -15,-15 v 0 c -8.285,0 -15,6.715 -15,15 v 180.485 c 0,8.285 6.715,15 15,15 z"
         style="fill:#e4fdc3;fill-opacity:1;fill-rule:nonzero;stroke:none"
         id="path20" />
      <path
         d="m 387.879,492.875 v 0 c 8.285,0 15,-6.715 15,-15 V 175.84 c 0,-8.281 -6.715,-15 -15,-15 v 0 c -8.281,0 -15,6.719 -15,15 v 302.035 c 0,8.285 6.719,15 15,15 z"
         style="fill:#e4fdc3;fill-opacity:1;fill-rule:nonzero;stroke:none"
         id="path22" />
      <path
         d="m 574.32,553.652 v 0 c 8.285,0 15,-6.718 15,-15 V 115.066 c 0,-8.285 -6.715,-15 -15,-15 v 0 c -8.285,0 -15,6.715 -15,15 v 423.586 c 0,8.282 6.715,15 15,15 z"
         style="fill:#e4fdc3;fill-opacity:1;fill-rule:nonzero;stroke:none"
         id="path24" />
      <path
         d="m 760.762,566.992 v 0 c 8.285,0 15,-6.715 15,-15 V 101.727 c 0,-8.2856 -6.715,-15.0004 -15,-15.0004 v 0 c -8.285,0 -15,6.7148 -15,15.0004 v 450.265 c 0,8.285 6.715,15 15,15 z"
         style="fill:#e4fdc3;fill-opacity:1;fill-rule:nonzero;stroke:none"
         id="path26" />
      <path
         d="m 667.539,437.289 v 0 c 8.285,0 15,-6.715 15,-15 V 231.43 c 0,-8.285 -6.715,-15 -15,-15 v 0 c -8.281,0 -15,6.715 -15,15 v 190.859 c 0,8.285 6.719,15 15,15 z"
         style="fill:#e4fdc3;fill-opacity:1;fill-rule:nonzero;stroke:none"
         id="path28" />
      <path
         d="m 853.98,379.313 v 0 c 8.286,0 15,-6.715 15,-15 v -74.907 c 0,-8.285 -6.714,-15 -15,-15 v 0 c -8.285,0 -15,6.715 -15,15 v 74.907 c 0,8.285 6.715,15 15,15 z"
         style="fill:#e4fdc3;fill-opacity:1;fill-rule:nonzero;stroke:none"
         id="path30" />
    </g>
  </g>
</svg>
