<?xml version="1.0" encoding="UTF-8" standalone="no"?>
<!-- Created with Inkscape (http://www.inkscape.org/) -->

<svg
   width="512"
   height="512"
   viewBox="0 0 135.46666 135.46667"
   version="1.1"
   id="svg8"
   sodipodi:docname="icon-template.svg"
   inkscape:export-xdpi="96.000008"
   inkscape:export-ydpi="96.000008"
   inkscape:version="1.4.2 (ebf0e940, 2025-05-08)"
   inkscape:export-filename="/Users/mh/SynologyDrive/git/1001Albums/HTML/EN/plugins/1001Albums/html/donate_MTL_icon_volunteer_activism.png"
   xmlns:inkscape="http://www.inkscape.org/namespaces/inkscape"
   xmlns:sodipodi="http://sodipodi.sourceforge.net/DTD/sodipodi-0.dtd"
   xmlns:xlink="http://www.w3.org/1999/xlink"
   xmlns="http://www.w3.org/2000/svg"
   xmlns:svg="http://www.w3.org/2000/svg"
   xmlns:rdf="http://www.w3.org/1999/02/22-rdf-syntax-ns#"
   xmlns:cc="http://creativecommons.org/ns#"
   xmlns:dc="http://purl.org/dc/elements/1.1/">
  <defs
     id="defs2">
    <linearGradient
       inkscape:collect="always"
       id="linearGradient1075">
      <stop
         style="stop-color:#19191e;stop-opacity:1"
         offset="0"
         id="stop1071" />
      <stop
         style="stop-color:#65656f;stop-opacity:1"
         offset="1"
         id="stop1073" />
    </linearGradient>
    <linearGradient
       id="linearGradient893"
       inkscape:swatch="solid">
      <stop
         style="stop-color:#e6e6e6;stop-opacity:1;"
         offset="0"
         id="stop891" />
    </linearGradient>
    <filter
       style="color-interpolation-filters:sRGB;"
       inkscape:label="Drop Shadow"
       id="filter999"
       x="-0.096012189"
       y="-0.096012189"
       width="1.1691643"
       height="1.1691643">
      <feFlood
         flood-opacity="1"
         flood-color="rgb(150,150,150)"
         result="flood"
         id="feFlood989" />
      <feComposite
         in="flood"
         in2="SourceGraphic"
         operator="out"
         result="composite1"
         id="feComposite991" />
      <feGaussianBlur
         in="composite1"
         stdDeviation="4"
         result="blur"
         id="feGaussianBlur993" />
      <feOffset
         dx="-3"
         dy="-3"
         result="offset"
         id="feOffset995" />
      <feComposite
         in="offset"
         in2="SourceGraphic"
         operator="in"
         result="composite2"
         id="feComposite997" />
    </filter>
    <filter
       inkscape:menu-tooltip="In and out glow with a possible offset and colorizable flood"
       inkscape:menu="Shadows and Glows"
       inkscape:label="Cutout Glow"
       style="color-interpolation-filters:sRGB;"
       id="filter1069"
       x="-0.13395834"
       y="-0.14121321"
       width="1.2679167"
       height="1.2970629">
      <feOffset
         dy="0.5"
         dx="0"
         id="feOffset1059"
         result="result2" />
      <feGaussianBlur
         stdDeviation="2.0099999999999998"
         result="blur"
         id="feGaussianBlur1061" />
      <feFlood
         flood-color="rgb(0,0,0)"
         flood-opacity="1"
         result="flood"
         id="feFlood1063" />
      <feComposite
         in="flood"
         in2="SourceGraphic"
         operator="in"
         result="composite"
         id="feComposite1065" />
      <feBlend
         in2="composite"
         mode="normal"
         id="feBlend1067"
         in="blur"
         result="result1" />
      <feComposite
         id="feComposite1081"
         in2="SourceGraphic"
         in="result1"
         operator="in" />
    </filter>
    <linearGradient
       inkscape:collect="always"
       xlink:href="#linearGradient1075"
       id="linearGradient1077"
       x1="86.521004"
       y1="296.06345"
       x2="86.521004"
       y2="177.75693"
       gradientUnits="userSpaceOnUse" />
    <filter
       inkscape:menu-tooltip="In and out glow with a possible offset and colorizable flood"
       inkscape:menu="Shadows and Glows"
       inkscape:label="Cutout Glow"
       style="color-interpolation-filters:sRGB;"
       id="filter1069-0"
       x="-0.052598917"
       y="-0.049044069"
       width="1.1051978"
       height="1.1031715">
      <feOffset
         dy="0.5"
         dx="0"
         id="feOffset1059-2"
         result="result2" />
      <feGaussianBlur
         stdDeviation="2.0099999999999998"
         result="blur"
         id="feGaussianBlur1061-4" />
      <feFlood
         flood-color="rgb(0,0,0)"
         flood-opacity="1"
         result="flood"
         id="feFlood1063-8" />
      <feComposite
         in="flood"
         in2="SourceGraphic"
         operator="in"
         result="composite"
         id="feComposite1065-3" />
      <feBlend
         in2="composite"
         mode="normal"
         id="feBlend1067-9"
         in="blur"
         result="result1" />
      <feComposite
         id="feComposite1081-0"
         in2="SourceGraphic"
         in="result1"
         operator="in" />
    </filter>
    <filter
       inkscape:menu-tooltip="In and out glow with a possible offset and colorizable flood"
       inkscape:menu="Shadows and Glows"
       inkscape:label="Cutout Glow"
       style="color-interpolation-filters:sRGB;"
       id="filter1069-9"
       x="-0.052598917"
       y="-0.049044069"
       width="1.1051978"
       height="1.1031715">
      <feOffset
         dy="0.5"
         dx="0"
         id="feOffset1059-7"
         result="result2" />
      <feGaussianBlur
         stdDeviation="2.0099999999999998"
         result="blur"
         id="feGaussianBlur1061-0" />
      <feFlood
         flood-color="rgb(0,0,0)"
         flood-opacity="1"
         result="flood"
         id="feFlood1063-3" />
      <feComposite
         in="flood"
         in2="SourceGraphic"
         operator="in"
         result="composite"
         id="feComposite1065-9" />
      <feBlend
         in2="composite"
         mode="normal"
         id="feBlend1067-8"
         in="blur"
         result="result1" />
      <feComposite
         id="feComposite1081-6"
         in2="SourceGraphic"
         in="result1"
         operator="in" />
    </filter>
    <filter
       inkscape:menu-tooltip="In and out glow with a possible offset and colorizable flood"
       inkscape:menu="Shadows and Glows"
       inkscape:label="Cutout Glow"
       style="color-interpolation-filters:sRGB;"
       id="filter1069-3"
       x="-0.052598917"
       y="-0.049044069"
       width="1.1051978"
       height="1.1031715">
      <feOffset
         dy="0.5"
         dx="0"
         id="feOffset1059-71"
         result="result2" />
      <feGaussianBlur
         stdDeviation="2.0099999999999998"
         result="blur"
         id="feGaussianBlur1061-8" />
      <feFlood
         flood-color="rgb(0,0,0)"
         flood-opacity="1"
         result="flood"
         id="feFlood1063-9" />
      <feComposite
         in="flood"
         in2="SourceGraphic"
         operator="in"
         result="composite"
         id="feComposite1065-37" />
      <feBlend
         in2="composite"
         mode="normal"
         id="feBlend1067-4"
         in="blur"
         result="result1" />
      <feComposite
         id="feComposite1081-8"
         in2="SourceGraphic"
         in="result1"
         operator="in" />
    </filter>
    <filter
       inkscape:menu-tooltip="In and out glow with a possible offset and colorizable flood"
       inkscape:menu="Shadows and Glows"
       inkscape:label="Cutout Glow"
       style="color-interpolation-filters:sRGB;"
       id="filter1069-33"
       x="-0.052598917"
       y="-0.049044069"
       width="1.1051978"
       height="1.1031715">
      <feOffset
         dy="0.5"
         dx="0"
         id="feOffset1059-8"
         result="result2" />
      <feGaussianBlur
         stdDeviation="2.0099999999999998"
         result="blur"
         id="feGaussianBlur1061-5" />
      <feFlood
         flood-color="rgb(0,0,0)"
         flood-opacity="1"
         result="flood"
         id="feFlood1063-89" />
      <feComposite
         in="flood"
         in2="SourceGraphic"
         operator="in"
         result="composite"
         id="feComposite1065-6" />
      <feBlend
         in2="composite"
         mode="normal"
         id="feBlend1067-0"
         in="blur"
         result="result1" />
      <feComposite
         id="feComposite1081-4"
         in2="SourceGraphic"
         in="result1"
         operator="in" />
    </filter>
    <filter
       inkscape:menu-tooltip="In and out glow with a possible offset and colorizable flood"
       inkscape:menu="Shadows and Glows"
       inkscape:label="Cutout Glow"
       style="color-interpolation-filters:sRGB;"
       id="filter1069-7"
       x="-0.052598917"
       y="-0.049044069"
       width="1.1051978"
       height="1.1031715">
      <feOffset
         dy="0.5"
         dx="0"
         id="feOffset1059-0"
         result="result2" />
      <feGaussianBlur
         stdDeviation="2.0099999999999998"
         result="blur"
         id="feGaussianBlur1061-01" />
      <feFlood
         flood-color="rgb(0,0,0)"
         flood-opacity="1"
         result="flood"
         id="feFlood1063-0" />
      <feComposite
         in="flood"
         in2="SourceGraphic"
         operator="in"
         result="composite"
         id="feComposite1065-30" />
      <feBlend
         in2="composite"
         mode="normal"
         id="feBlend1067-03"
         in="blur"
         result="result1" />
      <feComposite
         id="feComposite1081-83"
         in2="SourceGraphic"
         in="result1"
         operator="in" />
    </filter>
    <filter
       inkscape:menu-tooltip="In and out glow with a possible offset and colorizable flood"
       inkscape:menu="Shadows and Glows"
       inkscape:label="Cutout Glow"
       style="color-interpolation-filters:sRGB;"
       id="filter1069-09"
       x="-0.052598917"
       y="-0.049044069"
       width="1.1051978"
       height="1.1031715">
      <feOffset
         dy="0.5"
         dx="0"
         id="feOffset1059-24"
         result="result2" />
      <feGaussianBlur
         stdDeviation="2.0099999999999998"
         result="blur"
         id="feGaussianBlur1061-9" />
      <feFlood
         flood-color="rgb(0,0,0)"
         flood-opacity="1"
         result="flood"
         id="feFlood1063-2" />
      <feComposite
         in="flood"
         in2="SourceGraphic"
         operator="in"
         result="composite"
         id="feComposite1065-91" />
      <feBlend
         in2="composite"
         mode="normal"
         id="feBlend1067-09"
         in="blur"
         result="result1" />
      <feComposite
         id="feComposite1081-3"
         in2="SourceGraphic"
         in="result1"
         operator="in" />
    </filter>
    <filter
       inkscape:menu-tooltip="In and out glow with a possible offset and colorizable flood"
       inkscape:menu="Shadows and Glows"
       inkscape:label="Cutout Glow"
       style="color-interpolation-filters:sRGB;"
       id="filter1069-1"
       x="-0.052598917"
       y="-0.049044069"
       width="1.1051978"
       height="1.1031715">
      <feOffset
         dy="0.5"
         dx="0"
         id="feOffset1059-9"
         result="result2" />
      <feGaussianBlur
         stdDeviation="2.0099999999999998"
         result="blur"
         id="feGaussianBlur1061-86" />
      <feFlood
         flood-color="rgb(0,0,0)"
         flood-opacity="1"
         result="flood"
         id="feFlood1063-90" />
      <feComposite
         in="flood"
         in2="SourceGraphic"
         operator="in"
         result="composite"
         id="feComposite1065-1" />
      <feBlend
         in2="composite"
         mode="normal"
         id="feBlend1067-6"
         in="blur"
         result="result1" />
      <feComposite
         id="feComposite1081-44"
         in2="SourceGraphic"
         in="result1"
         operator="in" />
    </filter>
    <filter
       inkscape:menu-tooltip="In and out glow with a possible offset and colorizable flood"
       inkscape:menu="Shadows and Glows"
       inkscape:label="Cutout Glow"
       style="color-interpolation-filters:sRGB;"
       id="filter1069-08"
       x="-0.052598917"
       y="-0.049044069"
       width="1.1051978"
       height="1.1031715">
      <feOffset
         dy="0.5"
         dx="0"
         id="feOffset1059-1"
         result="result2" />
      <feGaussianBlur
         stdDeviation="2.0099999999999998"
         result="blur"
         id="feGaussianBlur1061-03" />
      <feFlood
         flood-color="rgb(0,0,0)"
         flood-opacity="1"
         result="flood"
         id="feFlood1063-1" />
      <feComposite
         in="flood"
         in2="SourceGraphic"
         operator="in"
         result="composite"
         id="feComposite1065-15" />
      <feBlend
         in2="composite"
         mode="normal"
         id="feBlend1067-08"
         in="blur"
         result="result1" />
      <feComposite
         id="feComposite1081-49"
         in2="SourceGraphic"
         in="result1"
         operator="in" />
    </filter>
    <filter
       inkscape:menu-tooltip="In and out glow with a possible offset and colorizable flood"
       inkscape:menu="Shadows and Glows"
       inkscape:label="Cutout Glow"
       style="color-interpolation-filters:sRGB;"
       id="filter1069-2"
       x="-0.052598917"
       y="-0.049044069"
       width="1.1051978"
       height="1.1031715">
      <feOffset
         dy="0.5"
         dx="0"
         id="feOffset1059-3"
         result="result2" />
      <feGaussianBlur
         stdDeviation="2.0099999999999998"
         result="blur"
         id="feGaussianBlur1061-87" />
      <feFlood
         flood-color="rgb(0,0,0)"
         flood-opacity="1"
         result="flood"
         id="feFlood1063-80" />
      <feComposite
         in="flood"
         in2="SourceGraphic"
         operator="in"
         result="composite"
         id="feComposite1065-4" />
      <feBlend
         in2="composite"
         mode="normal"
         id="feBlend1067-5"
         in="blur"
         result="result1" />
      <feComposite
         id="feComposite1081-7"
         in2="SourceGraphic"
         in="result1"
         operator="in" />
    </filter>
    <filter
       inkscape:menu-tooltip="In and out glow with a possible offset and colorizable flood"
       inkscape:menu="Shadows and Glows"
       inkscape:label="Cutout Glow"
       style="color-interpolation-filters:sRGB"
       id="filter1069-5"
       x="-0.052598917"
       y="-0.049044069"
       width="1.1051978"
       height="1.1031715">
      <feOffset
         dy="0.5"
         dx="0"
         id="feOffset1059-4"
         result="result2" />
      <feGaussianBlur
         stdDeviation="2.0099999999999998"
         result="blur"
         id="feGaussianBlur1061-53" />
      <feFlood
         flood-color="rgb(0,0,0)"
         flood-opacity="1"
         result="flood"
         id="feFlood1063-01" />
      <feComposite
         in="flood"
         in2="SourceGraphic"
         operator="in"
         result="composite"
         id="feComposite1065-94" />
      <feBlend
         in2="composite"
         mode="normal"
         id="feBlend1067-59"
         in="blur"
         result="result1" />
      <feComposite
         id="feComposite1081-39"
         in2="SourceGraphic"
         in="result1"
         operator="in" />
    </filter>
    <filter
       inkscape:menu-tooltip="In and out glow with a possible offset and colorizable flood"
       inkscape:menu="Shadows and Glows"
       inkscape:label="Cutout Glow"
       style="color-interpolation-filters:sRGB;"
       id="filter1069-38"
       x="-0.052598917"
       y="-0.049044069"
       width="1.1051978"
       height="1.1031715">
      <feOffset
         dy="0.5"
         dx="0"
         id="feOffset1059-02"
         result="result2" />
      <feGaussianBlur
         stdDeviation="2.0099999999999998"
         result="blur"
         id="feGaussianBlur1061-48" />
      <feFlood
         flood-color="rgb(0,0,0)"
         flood-opacity="1"
         result="flood"
         id="feFlood1063-39" />
      <feComposite
         in="flood"
         in2="SourceGraphic"
         operator="in"
         result="composite"
         id="feComposite1065-0" />
      <feBlend
         in2="composite"
         mode="normal"
         id="feBlend1067-52"
         in="blur"
         result="result1" />
      <feComposite
         id="feComposite1081-2"
         in2="SourceGraphic"
         in="result1"
         operator="in" />
    </filter>
    <filter
       inkscape:menu-tooltip="In and out glow with a possible offset and colorizable flood"
       inkscape:menu="Shadows and Glows"
       inkscape:label="Cutout Glow"
       style="color-interpolation-filters:sRGB;"
       id="filter1069-02"
       x="-0.052598917"
       y="-0.049044069"
       width="1.1051978"
       height="1.1031715">
      <feOffset
         dy="0.5"
         dx="0"
         id="feOffset1059-39"
         result="result2" />
      <feGaussianBlur
         stdDeviation="2.0099999999999998"
         result="blur"
         id="feGaussianBlur1061-97" />
      <feFlood
         flood-color="rgb(0,0,0)"
         flood-opacity="1"
         result="flood"
         id="feFlood1063-03" />
      <feComposite
         in="flood"
         in2="SourceGraphic"
         operator="in"
         result="composite"
         id="feComposite1065-98" />
      <feBlend
         in2="composite"
         mode="normal"
         id="feBlend1067-65"
         in="blur"
         result="result1" />
      <feComposite
         id="feComposite1081-76"
         in2="SourceGraphic"
         in="result1"
         operator="in" />
    </filter>
    <filter
       inkscape:menu-tooltip="In and out glow with a possible offset and colorizable flood"
       inkscape:menu="Shadows and Glows"
       inkscape:label="Cutout Glow"
       style="color-interpolation-filters:sRGB;"
       id="filter1069-74"
       x="-0.052598917"
       y="-0.049044069"
       width="1.1051978"
       height="1.1031715">
      <feOffset
         dy="0.5"
         dx="0"
         id="feOffset1059-49"
         result="result2" />
      <feGaussianBlur
         stdDeviation="2.0099999999999998"
         result="blur"
         id="feGaussianBlur1061-1" />
      <feFlood
         flood-color="rgb(0,0,0)"
         flood-opacity="1"
         result="flood"
         id="feFlood1063-5" />
      <feComposite
         in="flood"
         in2="SourceGraphic"
         operator="in"
         result="composite"
         id="feComposite1065-5" />
      <feBlend
         in2="composite"
         mode="normal"
         id="feBlend1067-58"
         in="blur"
         result="result1" />
      <feComposite
         id="feComposite1081-29"
         in2="SourceGraphic"
         in="result1"
         operator="in" />
    </filter>
  </defs>
  <sodipodi:namedview
     id="base"
     pagecolor="#ffffff"
     bordercolor="#666666"
     borderopacity="1.0"
     inkscape:pageopacity="0.0"
     inkscape:pageshadow="2"
     inkscape:zoom="1.6328077"
     inkscape:cx="255.69453"
     inkscape:cy="238.85238"
     inkscape:document-units="mm"
     inkscape:current-layer="layer1"
     showgrid="false"
     units="px"
     inkscape:window-width="3008"
     inkscape:window-height="1577"
     inkscape:window-x="0"
     inkscape:window-y="31"
     inkscape:window-maximized="0"
     inkscape:showpageshadow="2"
     inkscape:pagecheckerboard="0"
     inkscape:deskcolor="#d1d1d1" />
  <metadata
     id="metadata5">
    <rdf:RDF>
      <cc:Work
         rdf:about="">
        <dc:format>image/svg+xml</dc:format>
        <dc:type
           rdf:resource="http://purl.org/dc/dcmitype/StillImage" />
        <dc:title />
      </cc:Work>
    </rdf:RDF>
  </metadata>
  <g
     inkscape:label="Laag 1"
     inkscape:groupmode="layer"
     id="layer1"
     transform="translate(0,-161.53332)">
    <rect
       style="opacity:1;fill:none;fill-opacity:1;stroke:#0f0f0f;stroke-width:2.11667;stroke-miterlimit:4;stroke-dasharray:none;stroke-opacity:0.415686"
       id="rect815"
       width="133.35001"
       height="133.35001"
       x="1.0583333"
       y="162.59164"
       ry="15.646773"
       sodipodi:insensitive="true" />
    <rect
       style="opacity:1;fill:#e6e6e6;fill-opacity:1;stroke:none;stroke-width:2.08307;stroke-miterlimit:4;stroke-dasharray:none;stroke-opacity:0.415686"
       id="rect815-3-2"
       width="131.23332"
       height="131.23334"
       x="2.1166666"
       y="163.64998"
       ry="14.662473"
       sodipodi:insensitive="true" />
    <rect
       style="opacity:1;fill:#e6e6e6;fill-opacity:1;stroke:none;stroke-width:2.08307;stroke-miterlimit:4;stroke-dasharray:none;stroke-opacity:0.415686;filter:url(#filter999)"
       id="rect815-3"
       width="131.23334"
       height="131.23334"
       x="2.1166666"
       y="163.64998"
       ry="14.57864"
       sodipodi:insensitive="true" />
    <path
       style="display:none;fill:url(#linearGradient1077);fill-opacity:1;stroke-width:0.428055;filter:url(#filter1069)"
       d="m 53.605875,276.90066 c -0.44561,-1.00058 -1.79368,-3.26391 -2.9957,-5.02964 -2.65116,-3.89441 -3.60105,-5.68317 -3.60105,-6.78114 0,-1.27072 3.01104,-2.2713 7.91901,-2.6315 5.02084,-0.36848 5.60418,-0.56563 6.43665,-2.17545 0.92045,-1.77997 0.78791,-2.36985 -0.87194,-3.88027 -0.82401,-0.74983 -1.4982,-1.71763 -1.4982,-2.15066 0,-1.02264 -0.1685,-0.99577 -3.19951,0.51027 -1.40658,0.6989 -2.98499,1.27073 -3.50758,1.27073 -1.21795,0 -2.95302,-1.51628 -3.89711,-3.40569 -0.4476,-0.89579 -1.41473,-1.82535 -2.45146,-2.35623 -1.17881,-0.60364 -1.75876,-1.20627 -1.86164,-1.93439 -0.0822,-0.58169 -0.51558,-1.31408 -0.96312,-1.62755 -0.44753,-0.31347 -0.81665,-0.89611 -0.82026,-1.29476 -0.0131,-1.45457 -0.61482,-1.88356 -1.85147,-1.3201 -0.86243,0.39294 -1.39774,0.40048 -2.20849,0.0311 -0.93262,-0.42493 -1.07014,-0.76109 -1.07014,-2.61597 0,-3.27436 -0.79737,-6.45106 -1.61927,-6.45106 -0.5384,0 -0.57808,-0.11415 -0.17856,-0.51367 0.76108,-0.76107 0.63371,-1.07561 -0.55647,-1.37433 -0.62521,-0.15692 -1.07056,-0.57664 -1.07116,-1.00953 -5.5e-4,-0.40751 -0.76789,-1.86987 -1.70519,-3.24967 -1.95012,-2.87081 -2.5661,-4.7262 -2.57779,-7.76457 -0.014,-3.64586 -0.19723,-3.92328 -2.76595,-4.1884 -2.98386,-0.30796 -4.6842,-1.23422 -5.38895,-2.93563 -0.8786,-2.12114 -0.68703,-3.6333 1.04971,-8.28594 1.51076,-4.04726 1.78007,-4.45633 4.94153,-7.50604 1.92218,-1.85423 3.80983,-4.14536 4.44013,-5.38921 1.91463,-3.77834 4.52541,-5.39312 10.27877,-6.35745 1.16692,-0.19559 2.3632,-0.94246 4.16981,-2.60333 1.39339,-1.28098 2.92035,-2.32905 3.39326,-2.32905 0.98483,0 1.0957,0.43067 0.32475,1.26155 -0.60803,0.65531 -0.79717,0.71302 3.47071,-1.05904 3.4005,-1.41191 6.5237,-1.75957 9.04989,-1.00739 l 1.92625,0.57354 -2.74893,0.22268 c -3.03516,0.24587 -4.28393,1.29282 -1.54203,1.29282 1.90467,0 1.626,0.71499 -0.42891,1.10049 -0.81369,0.15265 -1.37343,0.44905 -1.24389,0.65866 0.35536,0.57498 2.97393,0.45832 5.72732,-0.25515 2.17267,-0.563 2.7368,-0.563 4.89828,0 1.34356,0.34995 3.0834,0.63627 3.86631,0.63627 1.94965,0 4.58466,0.98784 6.91884,2.59381 2.25417,1.55091 3.57618,1.66326 7.19436,0.61142 2.75606,-0.80121 6.03458,-0.70302 8.17858,0.24494 l 1.28416,0.56779 -1.92624,0.24651 -1.92625,0.24651 1.71222,0.34983 c 2.47211,0.50507 5.55619,1.91002 6.576215,2.99579 l 0.88171,0.93853 -2.433885,-0.01 c -3.2545,-0.0134 -3.47119,0.87665 -0.66583,2.73484 3.124995,2.06991 6.031555,2.76039 10.154525,2.41231 l 3.46557,-0.29259 -1.11184,1.13114 c -0.71353,0.72591 -1.75688,1.21765 -2.91236,1.37264 -1.27145,0.17053 -1.73555,0.41078 -1.57945,0.8176 0.38439,1.00168 -1.43544,1.5644 -4.31236,1.33347 -1.49139,-0.11971 -2.711615,-0.13411 -2.711615,-0.032 0,0.68234 3.985575,1.83842 6.366225,1.84663 2.37557,0.008 2.65895,0.0923 2.19487,0.65148 -0.29308,0.35315 -0.79823,0.64208 -1.12254,0.64208 -0.73622,0 -0.77444,0.70703 -0.0546,1.00988 0.34279,0.14423 -0.0758,0.77961 -1.16482,1.7681 l -1.69988,1.54297 1.80689,-0.28894 c 1.03761,-0.16592 1.80691,-0.11915 1.80691,0.10986 0,0.80458 -2.84156,3.10709 -4.92262,3.9888 -2.36983,1.00404 -6.634855,4.90429 -6.634855,6.06738 0,0.40897 0.22849,1.24507 0.50777,1.85802 0.44985,0.98734 0.68387,1.08467 2.05191,0.85354 1.504975,-0.25425 1.654495,-0.14745 5.893005,4.209 2.39187,2.45843 4.47287,4.96399 4.62444,5.56791 0.18995,0.75682 0.72827,1.24743 1.73227,1.57878 l 1.45668,0.48075 v 21.79759 21.79759 h -29.042675 -29.0427 z m 17.88302,-35.19557 c 3.66281,-1.89593 10.19349,-6.17457 13.79518,-9.03806 l 2.5324,-2.01335 -1.89032,-0.98874 c -1.03967,-0.54381 -2.20579,-0.99745 -2.59138,-1.00809 -0.38559,-0.0107 -5.49014,1.9719 -11.34345,4.40565 -5.8533,2.43375 -12.13164,4.96236 -13.95184,5.61915 l -3.30947,1.19415 0.74114,1.29639 c 0.40763,0.71303 2.27788,2.79988 4.15611,4.63745 l 3.41497,3.34105 2.65845,-2.91279 c 1.91661,-2.09998 3.53179,-3.36485 5.78821,-4.53281 z M 100.0759,207.67931 c 0.71889,-0.45464 0.65673,-0.48847 -2.342305,-1.27492 -1.96872,-0.51627 -5.65027,-0.61074 -5.17247,-0.13274 1.32642,1.327 6.19904,2.23973 7.514775,1.40766 z m -2.663355,-7.5632 c 1.63405,-0.43791 1.07037,-0.92342 -1.28416,-1.10608 -2.62864,-0.20391 -2.97596,-0.0591 -1.84376,0.76879 0.90041,0.65839 1.63439,0.73754 3.12792,0.33729 z"
       id="path1045"
       inkscape:connector-curvature="0"
       inkscape:label="composer" />
    <path
       d="m 49.154117,280.21785 q -3.974581,0 -6.804802,-2.8304 -2.830221,-2.83022 -2.830221,-6.80462 v -86.71466 q 0,-3.9744 2.830221,-6.80462 2.830221,-2.83022 6.804802,-2.83022 h 38.539729 q 3.9744,0 6.80462,2.83022 2.8304,2.83022 2.8304,6.80462 v 86.71466 q 0,3.9744 -2.8304,6.80462 -2.83022,2.8304 -6.80462,2.8304 z m 0,-9.63502 H 87.693846 V 183.86817 H 49.154117 Z M 68.42398,217.59066 q 6.021866,0 10.237156,-4.21547 4.21529,-4.21529 4.21529,-10.23697 0,-6.02187 -4.21529,-10.23716 -4.21529,-4.21529 -10.237156,-4.21529 -6.021866,0 -10.237154,4.21529 -4.215289,4.21529 -4.215289,10.23716 0,6.02168 4.215289,10.23697 4.215288,4.21547 10.237154,4.21547 z m 0,-9.63502 q -2.047467,0 -3.432535,-1.38562 -1.385613,-1.38561 -1.385613,-3.43235 0,-2.04747 1.385613,-3.43254 1.385614,-1.38561 3.432535,-1.38561 2.047468,0 3.432356,1.38561 1.38561,1.38562 1.38561,3.43254 0,2.04728 -1.38561,3.43235 -1.385617,1.38562 -3.432356,1.38562 z m -9.635022,28.90488 q 2.047467,0 3.432534,-1.38561 1.385614,-1.38562 1.385614,-3.43254 0,-2.04728 -1.385614,-3.43235 -1.385613,-1.38561 -3.432534,-1.38561 -2.047468,0 -3.432353,1.38561 -1.385614,1.38561 -1.385614,3.43235 0,2.04747 1.385614,3.43254 1.385614,1.38561 3.432353,1.38561 z m 19.269858,0 q 2.04747,0 3.43254,-1.38561 1.38561,-1.38562 1.38561,-3.43254 0,-2.04728 -1.38561,-3.43235 -1.38561,-1.38561 -3.43254,-1.38561 -2.04728,0 -3.43235,1.38561 -1.38561,1.38561 -1.38561,3.43235 0,2.04747 1.38561,3.43254 1.38562,1.38561 3.43235,1.38561 z m -19.269858,14.45244 q 2.047467,0 3.432534,-1.38561 1.385614,-1.38561 1.385614,-3.43253 0,-2.04729 -1.385614,-3.43236 -1.385613,-1.38561 -3.432534,-1.38561 -2.047468,0 -3.432353,1.38561 -1.385614,1.38562 -1.385614,3.43236 0,2.04746 1.385614,3.43253 1.385614,1.38561 3.432353,1.38561 z m 19.269858,0 q 2.04747,0 3.43254,-1.38561 1.38561,-1.38561 1.38561,-3.43253 0,-2.04729 -1.38561,-3.43236 -1.38561,-1.38561 -3.43254,-1.38561 -2.04728,0 -3.43235,1.38561 -1.38561,1.38562 -1.38561,3.43236 0,2.04746 1.38561,3.43253 1.38562,1.38561 3.43235,1.38561 z m -19.269858,14.45245 q 2.047467,0 3.432534,-1.38562 1.385614,-1.38561 1.385614,-3.43253 0,-2.04729 -1.385614,-3.43235 -1.385613,-1.38562 -3.432534,-1.38562 -2.047468,0 -3.432353,1.38562 -1.385614,1.38561 -1.385614,3.43235 0,2.04747 1.385614,3.43253 1.385614,1.38562 3.432353,1.38562 z m 19.269858,0 q 2.04747,0 3.43254,-1.38562 1.38561,-1.38561 1.38561,-3.43253 0,-2.04729 -1.38561,-3.43235 -1.38561,-1.38562 -3.43254,-1.38562 -2.04728,0 -3.43235,1.38562 -1.38561,1.38561 -1.38561,3.43235 0,2.04747 1.38561,3.43253 1.38562,1.38562 3.43235,1.38562 z m -28.904699,4.81742 v -86.71466 z"
       id="path1-0"
       style="font-variation-settings:normal;display:none;opacity:1;vector-effect:none;fill:url(#linearGradient1077);fill-opacity:1;stroke-width:0.428055;stroke-linecap:butt;stroke-linejoin:miter;stroke-miterlimit:4;stroke-dasharray:none;stroke-dashoffset:0;stroke-opacity:1;-inkscape-stroke:none;filter:url(#filter1069);stop-color:#000000;stop-opacity:1"
       inkscape:label="presets-remote" />
    <path
       d="M 85.635698,232.38021 66.809375,214.00756 q -3.515726,-3.40222 -5.954016,-7.54188 -2.438462,-4.13949 -2.438462,-9.01624 0,-6.2376 4.366324,-10.60393 4.366325,-4.36632 10.604102,-4.36632 3.629059,0 6.804615,1.53112 3.175555,1.5311 5.44376,4.13947 2.268205,-2.60854 5.44376,-4.13947 3.175555,-1.53112 6.804786,-1.53112 6.237606,0 10.603936,4.36632 4.36632,4.36633 4.36632,10.60393 0,4.87675 -2.38171,9.01624 -2.38154,4.13966 -5.89727,7.54188 z m 0,-12.70205 12.361877,-12.13504 q 2.154875,-2.15488 3.969405,-4.59317 1.81453,-2.43828 1.81453,-5.50051 0,-2.49504 -1.70085,-4.19623 -1.70086,-1.70086 -4.196244,-1.70086 -1.587694,0 -3.00547,0.62411 -1.41795,0.6241 -2.438291,1.87128 l -6.804785,8.16564 -6.804615,-8.16564 q -1.020169,-1.24821 -2.438462,-1.87128 -1.417949,-0.62411 -3.005298,-0.62411 -2.495043,0 -4.196239,1.70086 -1.700854,1.70085 -1.700854,4.19623 0,3.06223 1.81453,5.50051 1.814529,2.43829 3.969401,4.59317 z m -40.828201,37.65264 31.528544,8.61933 26.991959,-8.39248 q -0.56752,-1.02017 -1.64427,-1.75778 -1.07675,-0.73727 -2.43829,-0.73727 H 76.336384 q -3.062222,0 -4.876752,-0.22632 -1.814529,-0.22633 -3.742563,-0.90701 l -10.547351,-3.51573 2.495043,-8.84598 9.186324,3.06206 q 1.928034,0.56751 4.536581,0.907 2.608376,0.33949 7.711966,0.45437 0,-1.24821 -0.737266,-2.38154 -0.737265,-1.13334 -1.757777,-1.47454 l -26.538288,-9.7535 H 44.80784 Z m -27.218801,15.87761 v -49.90102 h 34.477262 q 0.793846,0 1.587692,0.17146 0.793845,0.17146 1.47453,0.39778 l 26.651793,9.86684 q 3.742563,1.36137 6.06752,4.76324 2.324786,3.40239 2.324786,7.48513 h 9.072989 q 5.670602,0 9.640002,3.74274 3.9694,3.74256 3.9694,9.86666 v 4.53658 l -36.291791,11.3412 -31.755211,-8.84615 v 6.57777 z m 9.07299,-9.07281 h 9.072991 v -31.75539 h -9.072991 z m 58.974012,-61.92274 z"
       id="path1-8"
       style="stroke-width:0.428055;font-variation-settings:normal;opacity:1;vector-effect:none;fill:url(#linearGradient1077);fill-opacity:1;stroke-linecap:butt;stroke-linejoin:miter;stroke-miterlimit:4;stroke-dasharray:none;stroke-dashoffset:0;stroke-opacity:1;-inkscape-stroke:none;filter:url(#filter1069);stop-color:#000000;stop-opacity:1"
       inkscape:label="donation" />
  </g>
  <g
     inkscape:groupmode="layer"
     id="layer2"
     inkscape:label="stars"
     style="display:none"
     sodipodi:insensitive="true">
    <path
       d="m 43.564554,254.63842 5.671764,-3.41611 5.671763,3.46106 -1.485461,-6.47264 4.996553,-4.31509 -6.572043,-0.58433 -2.610812,-6.11304 -2.610812,6.06809 -6.572044,0.58434 4.996554,4.36003 z m -5.446694,7.50645 2.92591,-12.63062 -9.813052,-8.49533 12.964032,-1.12372 5.041568,-11.91144 5.041567,11.91144 12.964032,1.12372 -9.813052,8.49533 2.92591,12.63062 -11.118457,-6.69737 z m 11.118458,-15.73209 z"
       id="path1-7"
       style="opacity:0.8;stroke-width:0.0449814"
       transform="translate(0,-161.53332)" />
    <path
       d="m 80.559318,254.63842 5.671764,-3.41611 5.671764,3.46106 -1.485462,-6.47264 4.996554,-4.31509 -6.572044,-0.58433 -2.610812,-6.11304 -2.610812,6.06809 -6.572044,0.58434 4.996554,4.36003 z m -5.446694,7.50645 2.92591,-12.63062 -9.813052,-8.49533 12.964032,-1.12372 5.041568,-11.91144 5.041568,11.91144 12.96403,1.12372 -9.81305,8.49533 2.92591,12.63062 -11.118458,-6.69737 z m 11.118458,-15.73209 z"
       id="path2-0"
       style="opacity:0.8;stroke-width:0.0449814"
       transform="translate(0,-161.53332)" />
    <path
       id="path1"
       style="opacity:0.8;mix-blend-mode:normal;stroke-width:0.0449814"
       d="m 25.067171,223.04354 5.671764,-3.41611 5.671764,3.46106 -1.485462,-6.47263 4.996554,-4.31509 -6.572044,-0.58434 -2.610812,-6.11304 -2.610812,6.06809 -6.572044,0.58434 4.996554,4.36004 z m -5.446694,7.50646 2.92591,-12.63063 -9.813052,-8.49533 12.964032,-1.12372 5.041568,-11.91144 5.041568,11.91144 12.964032,1.12372 -9.813052,8.49533 2.92591,12.63063 -11.118458,-6.69738 z m 11.118458,-15.7321 z"
       inkscape:label="empty1"
       transform="translate(0,-161.53332)" />
    <path
       d="m 62.061936,223.04354 5.671764,-3.41611 5.671764,3.46106 -1.485462,-6.47263 4.996554,-4.31509 -6.572044,-0.58434 -2.610812,-6.11304 -2.610812,6.06809 -6.572044,0.58434 4.996554,4.36004 z m -5.446694,7.50646 2.92591,-12.63063 -9.813054,-8.49533 12.964034,-1.12372 5.041568,-11.91144 5.041568,11.91144 12.964032,1.12372 -9.813052,8.49533 L 78.852158,230.55 67.7337,223.85262 Z M 67.7337,214.8179 Z"
       id="path2"
       style="opacity:0.808;stroke-width:0.0449814"
       transform="translate(0,-161.53332)" />
    <path
       d="m 99.056701,223.04354 5.671759,-3.41611 5.67177,3.46106 -1.48546,-6.47263 4.99655,-4.31509 -6.57204,-0.58434 -2.61082,-6.11304 -2.61081,6.06809 -6.572041,0.58434 4.996551,4.36004 z m -5.446694,7.50646 2.92591,-12.63063 -9.813052,-8.49533 12.964032,-1.12372 5.041563,-11.91144 5.04157,11.91144 12.96403,1.12372 -9.81305,8.49533 2.92591,12.63063 -11.11846,-6.69738 z m 11.118453,-15.7321 z"
       id="path3"
       style="display:inline;opacity:0.808;stroke-width:0.0449814"
       transform="translate(0,-161.53332)" />
    <path
       d="m 19.620477,230.55 2.92591,-12.63063 -9.813052,-8.49533 12.964032,-1.12372 5.041568,-11.91144 5.041568,11.91144 12.964032,1.12372 -9.813052,8.49533 2.92591,12.63063 -11.118458,-6.69738 z"
       id="path11"
       style="font-variation-settings:normal;display:inline;opacity:1;vector-effect:none;fill:url(#linearGradient1077);fill-opacity:1;stroke-width:0.428055;stroke-linecap:butt;stroke-linejoin:miter;stroke-miterlimit:4;stroke-dasharray:none;stroke-dashoffset:0;stroke-opacity:1;-inkscape-stroke:none;filter:url(#filter1069);stop-color:#000000;stop-opacity:1"
       sodipodi:insensitive="true"
       transform="translate(0,-161.53332)" />
    <path
       d="m 56.615242,230.55 2.92591,-12.63063 -9.813054,-8.49533 12.964034,-1.12372 5.041568,-11.91144 5.041568,11.91144 12.964032,1.12372 -9.813052,8.49533 2.92591,12.63063 -11.118458,-6.69738 z"
       id="path12"
       style="font-variation-settings:normal;display:inline;opacity:1;vector-effect:none;fill:url(#linearGradient1077);fill-opacity:1;stroke-width:0.428055;stroke-linecap:butt;stroke-linejoin:miter;stroke-miterlimit:4;stroke-dasharray:none;stroke-dashoffset:0;stroke-opacity:1;-inkscape-stroke:none;filter:url(#filter1069);stop-color:#000000;stop-opacity:1"
       sodipodi:insensitive="true"
       transform="translate(0,-161.53332)" />
    <path
       d="m 75.112624,262.14487 2.92591,-12.63062 -9.813052,-8.49533 12.964032,-1.12372 5.041568,-11.91144 5.041568,11.91144 12.96403,1.12372 -9.81305,8.49533 2.92591,12.63062 -11.118458,-6.69737 z"
       id="path10"
       style="font-variation-settings:normal;display:inline;opacity:1;vector-effect:none;fill:url(#linearGradient1077);fill-opacity:1;stroke-width:0.428055;stroke-linecap:butt;stroke-linejoin:miter;stroke-miterlimit:4;stroke-dasharray:none;stroke-dashoffset:0;stroke-opacity:1;-inkscape-stroke:none;filter:url(#filter1069);stop-color:#000000;stop-opacity:1"
       sodipodi:insensitive="true"
       transform="translate(0,-161.53332)" />
    <path
       d="m 38.11786,262.14487 2.92591,-12.63062 -9.813052,-8.49533 12.964032,-1.12372 5.041568,-11.91144 5.041567,11.91144 12.964032,1.12372 -9.813052,8.49533 2.92591,12.63062 -11.118457,-6.69737 z"
       id="path9"
       style="font-variation-settings:normal;display:none;opacity:1;vector-effect:none;fill:url(#linearGradient1077);fill-opacity:1;stroke-width:0.428055;stroke-linecap:butt;stroke-linejoin:miter;stroke-miterlimit:4;stroke-dasharray:none;stroke-dashoffset:0;stroke-opacity:1;-inkscape-stroke:none;filter:url(#filter1069);stop-color:#000000;stop-opacity:1"
       sodipodi:insensitive="true"
       transform="translate(0,-161.53332)" />
    <path
       d="m 93.610007,230.55 2.92591,-12.63063 -9.813052,-8.49533 12.964032,-1.12372 5.041563,-11.91144 5.04157,11.91144 12.96403,1.12372 -9.81305,8.49533 2.92591,12.63063 -11.11846,-6.69738 z"
       id="path13"
       style="font-variation-settings:normal;display:none;opacity:1;vector-effect:none;fill:url(#linearGradient1077);fill-opacity:1;stroke-width:0.428055;stroke-linecap:butt;stroke-linejoin:miter;stroke-miterlimit:4;stroke-dasharray:none;stroke-dashoffset:0;stroke-opacity:1;-inkscape-stroke:none;filter:url(#filter1069);stop-color:#000000;stop-opacity:1"
       sodipodi:insensitive="true"
       transform="translate(0,-161.53332)" />
  </g>
</svg>
