<?xml version="1.0" encoding="UTF-8" standalone="no"?>
<!DOCTYPE svg PUBLIC "-//W3C//DTD SVG 1.1//EN" "http://www.w3.org/Graphics/SVG/1.1/DTD/svg11.dtd">
<svg xmlns:dc="http://purl.org/dc/elements/1.1/" version="1.1" xmlns:xl="http://www.w3.org/1999/xlink" xmlns="http://www.w3.org/2000/svg" viewBox="420.12234 1159.4995 343.37766 44.00218" width="343.37766" height="44.00218">
  <defs/>
  <g id="Icon" fill-opacity="1" stroke-dasharray="none" stroke-opacity="1" stroke="none" fill="none">
    <title>Icon</title>
    <g id="Icon_Calque_1">
      <title>Calque 1</title>
      <g id="Group_212">
        <g id="Graphic_222">
          <path d="M 421.1436 1177.9683 L 421.1436 1177.9683 C 421.70765 1177.9683 422.1649 1178.4255 422.1649 1178.9895 L 422.1649 1184.0116 C 422.1649 1184.5756 421.70765 1185.0328 421.1436 1185.0328 L 421.1436 1185.0328 C 420.5796 1185.0328 420.12234 1184.5756 420.12234 1184.0116 L 420.12234 1178.9895 C 420.12234 1178.4255 420.5796 1177.9683 421.1436 1177.9683 Z" fill="black"/>
        </g>
        <g id="Graphic_221">
          <path d="M 427.4905 1170.1972 L 427.4905 1170.1972 C 428.05455 1170.1972 428.5118 1170.6545 428.5118 1171.2185 L 428.5118 1191.7826 C 428.5118 1192.3466 428.05455 1192.8039 427.4905 1192.8039 L 427.4905 1192.8039 C 426.9265 1192.8039 426.46924 1192.3466 426.46924 1191.7826 L 426.46924 1171.2185 C 426.46924 1170.6545 426.9265 1170.1972 427.4905 1170.1972 Z" fill="black"/>
        </g>
        <g id="Graphic_220">
          <path d="M 433.8374 1162.4262 L 433.8374 1162.4262 C 434.40146 1162.4262 434.8587 1162.8834 434.8587 1163.4475 L 434.8587 1199.5536 C 434.8587 1200.1176 434.40146 1200.5749 433.8374 1200.5749 L 433.8374 1200.5749 C 433.2734 1200.5749 432.81614 1200.1176 432.81614 1199.5536 L 432.81614 1163.4475 C 432.81614 1162.8834 433.2734 1162.4262 433.8374 1162.4262 Z" fill="black"/>
        </g>
        <g id="Graphic_219">
          <path d="M 452.8781 1159.4995 L 452.8781 1159.4995 C 453.44216 1159.4995 453.8994 1159.9567 453.8994 1160.5207 L 453.8994 1202.4804 C 453.8994 1203.0444 453.44216 1203.5016 452.8781 1203.5016 L 452.8781 1203.5016 C 452.3141 1203.5016 451.85685 1203.0444 451.85685 1202.4804 L 451.85685 1160.5207 C 451.85685 1159.9567 452.3141 1159.4995 452.8781 1159.4995 Z" fill="black"/>
        </g>
        <g id="Graphic_218">
          <path d="M 440.1843 1174.335 L 440.1843 1174.335 C 440.74836 1174.335 441.2056 1174.7923 441.2056 1175.3563 L 441.2056 1187.6448 C 441.2056 1188.2088 440.74836 1188.666 440.1843 1188.666 L 440.1843 1188.666 C 439.6203 1188.666 439.16304 1188.2088 439.16304 1187.6448 L 439.16304 1175.3563 C 439.16304 1174.7923 439.6203 1174.335 440.1843 1174.335 Z" fill="black"/>
        </g>
        <g id="Graphic_217">
          <path d="M 446.5312 1170.1972 L 446.5312 1170.1972 C 447.09526 1170.1972 447.5525 1170.6545 447.5525 1171.2185 L 447.5525 1191.7826 C 447.5525 1192.3466 447.09526 1192.8039 446.5312 1192.8039 L 446.5312 1192.8039 C 445.9672 1192.8039 445.50995 1192.3466 445.50995 1191.7826 L 445.50995 1171.2185 C 445.50995 1170.6545 445.9672 1170.1972 446.5312 1170.1972 Z" fill="black"/>
        </g>
        <g id="Graphic_216">
          <path d="M 459.225 1166.0594 L 459.225 1166.0594 C 459.78906 1166.0594 460.2463 1166.5167 460.2463 1167.0807 L 460.2463 1195.9204 C 460.2463 1196.4844 459.78906 1196.9417 459.225 1196.9417 L 459.225 1196.9417 C 458.661 1196.9417 458.20375 1196.4844 458.20375 1195.9204 L 458.20375 1167.0807 C 458.20375 1166.5167 458.661 1166.0594 459.225 1166.0594 Z" fill="black"/>
        </g>
        <g id="Graphic_215">
          <path d="M 471.9188 1165.1511 L 471.9188 1165.1511 C 472.48286 1165.1511 472.9401 1165.6084 472.9401 1166.1724 L 472.9401 1196.8287 C 472.9401 1197.3927 472.48286 1197.85 471.9188 1197.85 L 471.9188 1197.85 C 471.3548 1197.85 470.89755 1197.3927 470.89755 1196.8287 L 470.89755 1166.1724 C 470.89755 1165.6084 471.3548 1165.1511 471.9188 1165.1511 Z" fill="black"/>
        </g>
        <g id="Graphic_214">
          <path d="M 465.5719 1173.9818 L 465.5719 1173.9818 C 466.13596 1173.9818 466.5932 1174.439 466.5932 1175.0031 L 466.5932 1187.998 C 466.5932 1188.562 466.13596 1189.0193 465.5719 1189.0193 L 465.5719 1189.0193 C 465.0079 1189.0193 464.55065 1188.562 464.55065 1187.998 L 464.55065 1175.0031 C 464.55065 1174.439 465.0079 1173.9818 465.5719 1173.9818 Z" fill="black"/>
        </g>
        <g id="Graphic_213">
          <path d="M 478.26573 1177.9292 L 478.26573 1177.9292 C 478.82976 1177.9292 479.287 1178.3865 479.287 1178.9505 L 479.287 1184.0506 C 479.287 1184.6146 478.82976 1185.0719 478.26573 1185.0719 L 478.26573 1185.0719 C 477.7017 1185.0719 477.24445 1184.6146 477.24445 1184.0506 L 477.24445 1178.9505 C 477.24445 1178.3865 477.7017 1177.9292 478.26573 1177.9292 Z" fill="black"/>
        </g>
      </g>
      <g id="Graphic_211">
        <text transform="translate(491.9521 1164.0005)" fill="black">
          <tspan font-family="Montserrat" font-weight="bold" font-size="28.596" fill="black" x="0" y="28" xml:space="preserve">LYRION</tspan>
        </text>
      </g>
      <g id="Graphic_210">
        <path d="M 762.5 1181.5005 L 762.5 1181.5005 C 762.5 1187.5757 757.5751 1192.5005 751.5 1192.5005 L 621.7483 1192.5005 C 615.6732 1192.5005 610.7483 1187.5757 610.7483 1181.5005 L 610.7483 1181.5005 C 610.7483 1175.4254 615.6732 1170.5005 621.7483 1170.5005 L 751.5 1170.5005 C 757.5751 1170.5005 762.5 1175.4254 762.5 1181.5005 Z" stroke="black" stroke-linecap="round" stroke-linejoin="round" stroke-width="2"/>
      </g>
      <g id="Graphic_209">
        <text transform="translate(616.62415 1171.5005)" fill="black">
          <tspan font-family="Montserrat" font-size="17" fill="black" x="3.870652" y="16" xml:space="preserve">MUSIC SERVER</tspan>
        </text>
      </g>
    </g>
  </g>
</svg>
