<?xml version="1.0" encoding="UTF-8" standalone="no"?>
<!DOCTYPE svg PUBLIC "-//W3C//DTD SVG 1.1//EN" "http://www.w3.org/Graphics/SVG/1.1/DTD/svg11.dtd">
<svg xmlns:dc="http://purl.org/dc/elements/1.1/" version="1.1" xmlns:xl="http://www.w3.org/1999/xlink" xmlns="http://www.w3.org/2000/svg" viewBox="-43.87766 1160.4995 323.681 44.00218" width="323.681" height="44.00218">
  <defs/>
  <g id="Icon" fill-opacity="1" stroke-dasharray="none" stroke-opacity="1" stroke="none" fill="none">
    <title>Icon</title>
    <g id="Icon_Calque_1">
      <title>Calque 1</title>
      <g id="Group_177">
        <g id="Group_162">
          <g id="Graphic_172">
            <path d="M -42.856383 1178.9683 L -42.856383 1178.9683 C -42.292347 1178.9683 -41.835106 1179.4255 -41.835106 1179.9895 L -41.835106 1185.0116 C -41.835106 1185.5756 -42.292347 1186.0328 -42.856383 1186.0328 L -42.856383 1186.0328 C -43.42042 1186.0328 -43.87766 1185.5756 -43.87766 1185.0116 L -43.87766 1179.9895 C -43.87766 1179.4255 -43.42042 1178.9683 -42.856383 1178.9683 Z" fill="black"/>
          </g>
          <g id="Graphic_171">
            <path d="M -36.50948 1171.1972 L -36.50948 1171.1972 C -35.945446 1171.1972 -35.488205 1171.6545 -35.488205 1172.2185 L -35.488205 1192.7826 C -35.488205 1193.3466 -35.945446 1193.8039 -36.50948 1193.8039 L -36.50948 1193.8039 C -37.073517 1193.8039 -37.53076 1193.3466 -37.53076 1192.7826 L -37.53076 1172.2185 C -37.53076 1171.6545 -37.073517 1171.1972 -36.50948 1171.1972 Z" fill="black"/>
          </g>
          <g id="Graphic_170">
            <path d="M -30.16258 1163.4262 L -30.16258 1163.4262 C -29.598545 1163.4262 -29.141303 1163.8834 -29.141303 1164.4475 L -29.141303 1200.5536 C -29.141303 1201.1176 -29.598545 1201.5749 -30.16258 1201.5749 L -30.16258 1201.5749 C -30.726616 1201.5749 -31.183857 1201.1176 -31.183857 1200.5536 L -31.183857 1164.4475 C -31.183857 1163.8834 -30.726616 1163.4262 -30.16258 1163.4262 Z" fill="black"/>
          </g>
          <g id="Graphic_169">
            <path d="M -11.121876 1160.4995 L -11.121876 1160.4995 C -10.557841 1160.4995 -10.1006 1160.9567 -10.1006 1161.5207 L -10.1006 1203.4804 C -10.1006 1204.0444 -10.557841 1204.5016 -11.121876 1204.5016 L -11.121876 1204.5016 C -11.685912 1204.5016 -12.143153 1204.0444 -12.143153 1203.4804 L -12.143153 1161.5207 C -12.143153 1160.9567 -11.685912 1160.4995 -11.121876 1160.4995 Z" fill="black"/>
          </g>
          <g id="Graphic_168">
            <path d="M -23.81568 1175.335 L -23.81568 1175.335 C -23.251643 1175.335 -22.794402 1175.7923 -22.794402 1176.3563 L -22.794402 1188.6448 C -22.794402 1189.2088 -23.251643 1189.666 -23.81568 1189.666 L -23.81568 1189.666 C -24.379715 1189.666 -24.836956 1189.2088 -24.836956 1188.6448 L -24.836956 1176.3563 C -24.836956 1175.7923 -24.379715 1175.335 -23.81568 1175.335 Z" fill="black"/>
          </g>
          <g id="Graphic_167">
            <path d="M -17.468778 1171.1972 L -17.468778 1171.1972 C -16.904742 1171.1972 -16.4475 1171.6545 -16.4475 1172.2185 L -16.4475 1192.7826 C -16.4475 1193.3466 -16.904742 1193.8039 -17.468778 1193.8039 L -17.468778 1193.8039 C -18.032813 1193.8039 -18.490054 1193.3466 -18.490054 1192.7826 L -18.490054 1172.2185 C -18.490054 1171.6545 -18.032813 1171.1972 -17.468778 1171.1972 Z" fill="black"/>
          </g>
          <g id="Graphic_166">
            <path d="M -4.774975 1167.0594 L -4.774975 1167.0594 C -4.2109395 1167.0594 -3.7536983 1167.5167 -3.7536983 1168.0807 L -3.7536983 1196.9204 C -3.7536983 1197.4844 -4.2109395 1197.9417 -4.774975 1197.9417 L -4.774975 1197.9417 C -5.339011 1197.9417 -5.796252 1197.4844 -5.796252 1196.9204 L -5.796252 1168.0807 C -5.796252 1167.5167 -5.339011 1167.0594 -4.774975 1167.0594 Z" fill="black"/>
          </g>
          <g id="Graphic_165">
            <path d="M 7.918827 1166.1511 L 7.918827 1166.1511 C 8.482863 1166.1511 8.940104 1166.6084 8.940104 1167.1724 L 8.940104 1197.8287 C 8.940104 1198.3927 8.482863 1198.85 7.918827 1198.85 L 7.918827 1198.85 C 7.354792 1198.85 6.8975506 1198.3927 6.8975506 1197.8287 L 6.8975506 1167.1724 C 6.8975506 1166.6084 7.354792 1166.1511 7.918827 1166.1511 Z" fill="black"/>
          </g>
          <g id="Graphic_164">
            <path d="M 1.5719261 1174.9818 L 1.5719261 1174.9818 C 2.1359617 1174.9818 2.593203 1175.439 2.593203 1176.0031 L 2.593203 1188.998 C 2.593203 1189.562 2.1359617 1190.0193 1.5719261 1190.0193 L 1.5719261 1190.0193 C 1.0078905 1190.0193 .5506493 1189.562 .5506493 1188.998 L .5506493 1176.0031 C .5506493 1175.439 1.0078905 1174.9818 1.5719261 1174.9818 Z" fill="black"/>
          </g>
          <g id="Graphic_163">
            <path d="M 14.265729 1178.9292 L 14.265729 1178.9292 C 14.829764 1178.9292 15.287005 1179.3865 15.287005 1179.9505 L 15.287005 1185.0506 C 15.287005 1185.6146 14.829764 1186.0719 14.265729 1186.0719 L 14.265729 1186.0719 C 13.701693 1186.0719 13.244452 1185.6146 13.244452 1185.0506 L 13.244452 1179.9505 C 13.244452 1179.3865 13.701693 1178.9292 14.265729 1178.9292 Z" fill="black"/>
          </g>
        </g>
        <g id="Graphic_161">
          <text transform="translate(27.952128 1165.0005)" fill="black">
            <tspan font-family="Montserrat" font-weight="bold" font-size="28.596" fill="black" x="0" y="28" xml:space="preserve">LYRION</tspan>
          </text>
        </g>
        <g id="Graphic_160">
          <path d="M 276.85837 1182.5005 L 276.85837 1182.5005 C 276.85837 1188.5757 271.9335 1193.5005 265.85837 1193.5005 L 157.7483 1193.5005 C 151.67317 1193.5005 146.7483 1188.5757 146.7483 1182.5005 L 146.7483 1182.5005 C 146.7483 1176.4254 151.67317 1171.5005 157.7483 1171.5005 L 265.85837 1171.5005 C 271.9335 1171.5005 276.85837 1176.4254 276.85837 1182.5005 Z" stroke="black" stroke-linecap="round" stroke-linejoin="round" stroke-width="2"/>
        </g>
        <g id="Graphic_159">
          <text transform="translate(151 1172.5005)" fill="black">
            <tspan font-family="Montserrat" font-size="17" fill="black" x="5.828804" y="16" xml:space="preserve">COMMUNITY</tspan>
          </text>
        </g>
      </g>
    </g>
  </g>
</svg>
