<?xml version="1.0" encoding="UTF-8" standalone="no"?>
<!DOCTYPE svg PUBLIC "-//W3C//DTD SVG 1.1//EN" "http://www.w3.org/Graphics/SVG/1.1/DTD/svg11.dtd">
<svg xmlns:dc="http://purl.org/dc/elements/1.1/" version="1.1" xmlns:xl="http://www.w3.org/1999/xlink" xmlns="http://www.w3.org/2000/svg" viewBox="-43.87766 1110 323.681 44.00218" width="323.681" height="44.00218">
  <defs/>
  <g id="Icon" fill-opacity="1" stroke-dasharray="none" stroke-opacity="1" stroke="none" fill="none">
    <title>Icon</title>
    <g id="Icon_Calque_1">
      <title>Calque 1</title>
      <g id="Group_176">
        <g id="Group_129">
          <g id="Graphic_139">
            <path d="M -42.856383 1128.4688 L -42.856383 1128.4688 C -42.292347 1128.4688 -41.835106 1128.926 -41.835106 1129.4901 L -41.835106 1134.5121 C -41.835106 1135.0761 -42.292347 1135.5334 -42.856383 1135.5334 L -42.856383 1135.5334 C -43.42042 1135.5334 -43.87766 1135.0761 -43.87766 1134.5121 L -43.87766 1129.4901 C -43.87766 1128.926 -43.42042 1128.4688 -42.856383 1128.4688 Z" fill="#e3fdc4"/>
          </g>
          <g id="Graphic_138">
            <path d="M -36.50948 1120.6978 L -36.50948 1120.6978 C -35.945446 1120.6978 -35.488205 1121.155 -35.488205 1121.719 L -35.488205 1142.2831 C -35.488205 1142.8472 -35.945446 1143.3044 -36.50948 1143.3044 L -36.50948 1143.3044 C -37.073517 1143.3044 -37.53076 1142.8472 -37.53076 1142.2831 L -37.53076 1121.719 C -37.53076 1121.155 -37.073517 1120.6978 -36.50948 1120.6978 Z" fill="#e3fdc4"/>
          </g>
          <g id="Graphic_137">
            <path d="M -30.16258 1112.9268 L -30.16258 1112.9268 C -29.598545 1112.9268 -29.141303 1113.384 -29.141303 1113.948 L -29.141303 1150.0542 C -29.141303 1150.6182 -29.598545 1151.0754 -30.16258 1151.0754 L -30.16258 1151.0754 C -30.726616 1151.0754 -31.183857 1150.6182 -31.183857 1150.0542 L -31.183857 1113.948 C -31.183857 1113.384 -30.726616 1112.9268 -30.16258 1112.9268 Z" fill="#e3fdc4"/>
          </g>
          <g id="Graphic_136">
            <path d="M -11.121876 1110 L -11.121876 1110 C -10.557841 1110 -10.1006 1110.4572 -10.1006 1111.0213 L -10.1006 1152.9809 C -10.1006 1153.545 -10.557841 1154.0022 -11.121876 1154.0022 L -11.121876 1154.0022 C -11.685912 1154.0022 -12.143153 1153.545 -12.143153 1152.9809 L -12.143153 1111.0213 C -12.143153 1110.4572 -11.685912 1110 -11.121876 1110 Z" fill="#e3fdc4"/>
          </g>
          <g id="Graphic_135">
            <path d="M -23.81568 1124.8356 L -23.81568 1124.8356 C -23.251643 1124.8356 -22.794402 1125.2928 -22.794402 1125.8569 L -22.794402 1138.1453 C -22.794402 1138.7093 -23.251643 1139.1666 -23.81568 1139.1666 L -23.81568 1139.1666 C -24.379715 1139.1666 -24.836956 1138.7093 -24.836956 1138.1453 L -24.836956 1125.8569 C -24.836956 1125.2928 -24.379715 1124.8356 -23.81568 1124.8356 Z" fill="#e3fdc4"/>
          </g>
          <g id="Graphic_134">
            <path d="M -17.468778 1120.6978 L -17.468778 1120.6978 C -16.904742 1120.6978 -16.4475 1121.155 -16.4475 1121.719 L -16.4475 1142.2831 C -16.4475 1142.8472 -16.904742 1143.3044 -17.468778 1143.3044 L -17.468778 1143.3044 C -18.032813 1143.3044 -18.490054 1142.8472 -18.490054 1142.2831 L -18.490054 1121.719 C -18.490054 1121.155 -18.032813 1120.6978 -17.468778 1120.6978 Z" fill="#e3fdc4"/>
          </g>
          <g id="Graphic_133">
            <path d="M -4.774975 1116.56 L -4.774975 1116.56 C -4.2109395 1116.56 -3.7536983 1117.0172 -3.7536983 1117.5812 L -3.7536983 1146.421 C -3.7536983 1146.985 -4.2109395 1147.4422 -4.774975 1147.4422 L -4.774975 1147.4422 C -5.339011 1147.4422 -5.796252 1146.985 -5.796252 1146.421 L -5.796252 1117.5812 C -5.796252 1117.0172 -5.339011 1116.56 -4.774975 1116.56 Z" fill="#e3fdc4"/>
          </g>
          <g id="Graphic_132">
            <path d="M 7.918827 1115.6517 L 7.918827 1115.6517 C 8.482863 1115.6517 8.940104 1116.1089 8.940104 1116.6729 L 8.940104 1147.3292 C 8.940104 1147.8933 8.482863 1148.3505 7.918827 1148.3505 L 7.918827 1148.3505 C 7.354792 1148.3505 6.8975506 1147.8933 6.8975506 1147.3292 L 6.8975506 1116.6729 C 6.8975506 1116.1089 7.354792 1115.6517 7.918827 1115.6517 Z" fill="#e3fdc4"/>
          </g>
          <g id="Graphic_131">
            <path d="M 1.5719261 1124.4824 L 1.5719261 1124.4824 C 2.1359617 1124.4824 2.593203 1124.9396 2.593203 1125.5036 L 2.593203 1138.4985 C 2.593203 1139.0626 2.1359617 1139.5198 1.5719261 1139.5198 L 1.5719261 1139.5198 C 1.0078905 1139.5198 .5506493 1139.0626 .5506493 1138.4985 L .5506493 1125.5036 C .5506493 1124.9396 1.0078905 1124.4824 1.5719261 1124.4824 Z" fill="#e3fdc4"/>
          </g>
          <g id="Graphic_130">
            <path d="M 14.265729 1128.4298 L 14.265729 1128.4298 C 14.829764 1128.4298 15.287005 1128.887 15.287005 1129.451 L 15.287005 1134.5511 C 15.287005 1135.1152 14.829764 1135.5724 14.265729 1135.5724 L 14.265729 1135.5724 C 13.701693 1135.5724 13.244452 1135.1152 13.244452 1134.5511 L 13.244452 1129.451 C 13.244452 1128.887 13.701693 1128.4298 14.265729 1128.4298 Z" fill="#e3fdc4"/>
          </g>
        </g>
        <g id="Graphic_128">
          <text transform="translate(27.952128 1114.5011)" fill="#e3fdc4">
            <tspan font-family="Montserrat" font-weight="bold" font-size="28.596" fill="#e3fdc4" x="0" y="28" xml:space="preserve">LYRION</tspan>
          </text>
        </g>
        <g id="Graphic_175">
          <path d="M 276.85837 1132.0011 L 276.85837 1132.0011 C 276.85837 1138.0762 271.9335 1143.0011 265.85837 1143.0011 L 157.7483 1143.0011 C 151.67317 1143.0011 146.7483 1138.0762 146.7483 1132.0011 L 146.7483 1132.0011 C 146.7483 1125.926 151.67317 1121.0011 157.7483 1121.0011 L 265.85837 1121.0011 C 271.9335 1121.0011 276.85837 1125.926 276.85837 1132.0011 Z" stroke="#e2fdc4" stroke-linecap="round" stroke-linejoin="round" stroke-width="2"/>
        </g>
        <g id="Graphic_174">
          <text transform="translate(151 1122.0011)" fill="#e2fdc4">
            <tspan font-family="Montserrat" font-size="17" fill="#e2fdc4" x="5.828804" y="16" xml:space="preserve">COMMUNITY</tspan>
          </text>
        </g>
      </g>
    </g>
  </g>
</svg>
