<?xml version="1.0" encoding="UTF-8" standalone="no"?>
<!DOCTYPE svg PUBLIC "-//W3C//DTD SVG 1.1//EN" "http://www.w3.org/Graphics/SVG/1.1/DTD/svg11.dtd">
<svg xmlns:dc="http://purl.org/dc/elements/1.1/" version="1.1" xmlns:xl="http://www.w3.org/1999/xlink" xmlns="http://www.w3.org/2000/svg" viewBox="-43.87766 1218.2497 323.681 44.00218" width="323.681" height="44.00218">
  <defs/>
  <g id="Icon" fill-opacity="1" stroke-dasharray="none" stroke-opacity="1" stroke="none" fill="none">
    <title>Icon</title>
    <g id="Icon_Calque_1">
      <title>Calque 1</title>
      <g id="Group_182">
        <g id="Graphic_192">
          <path d="M -42.856383 1236.7185 L -42.856383 1236.7185 C -42.292347 1236.7185 -41.835106 1237.1758 -41.835106 1237.7398 L -41.835106 1242.7618 C -41.835106 1243.3259 -42.292347 1243.7831 -42.856383 1243.7831 L -42.856383 1243.7831 C -43.42042 1243.7831 -43.87766 1243.3259 -43.87766 1242.7618 L -43.87766 1237.7398 C -43.87766 1237.1758 -43.42042 1236.7185 -42.856383 1236.7185 Z" fill="white"/>
        </g>
        <g id="Graphic_191">
          <path d="M -36.50948 1228.9475 L -36.50948 1228.9475 C -35.945446 1228.9475 -35.488205 1229.4047 -35.488205 1229.9688 L -35.488205 1250.5329 C -35.488205 1251.0969 -35.945446 1251.5541 -36.50948 1251.5541 L -36.50948 1251.5541 C -37.073517 1251.5541 -37.53076 1251.0969 -37.53076 1250.5329 L -37.53076 1229.9688 C -37.53076 1229.4047 -37.073517 1228.9475 -36.50948 1228.9475 Z" fill="white"/>
        </g>
        <g id="Graphic_190">
          <path d="M -30.16258 1221.1765 L -30.16258 1221.1765 C -29.598545 1221.1765 -29.141303 1221.6337 -29.141303 1222.1978 L -29.141303 1258.3039 C -29.141303 1258.8679 -29.598545 1259.3252 -30.16258 1259.3252 L -30.16258 1259.3252 C -30.726616 1259.3252 -31.183857 1258.8679 -31.183857 1258.3039 L -31.183857 1222.1978 C -31.183857 1221.6337 -30.726616 1221.1765 -30.16258 1221.1765 Z" fill="white"/>
        </g>
        <g id="Graphic_189">
          <path d="M -11.121876 1218.2497 L -11.121876 1218.2497 C -10.557841 1218.2497 -10.1006 1218.707 -10.1006 1219.271 L -10.1006 1261.2306 C -10.1006 1261.7947 -10.557841 1262.2519 -11.121876 1262.2519 L -11.121876 1262.2519 C -11.685912 1262.2519 -12.143153 1261.7947 -12.143153 1261.2306 L -12.143153 1219.271 C -12.143153 1218.707 -11.685912 1218.2497 -11.121876 1218.2497 Z" fill="white"/>
        </g>
        <g id="Graphic_188">
          <path d="M -23.81568 1233.0853 L -23.81568 1233.0853 C -23.251643 1233.0853 -22.794402 1233.5426 -22.794402 1234.1066 L -22.794402 1246.395 C -22.794402 1246.959 -23.251643 1247.4163 -23.81568 1247.4163 L -23.81568 1247.4163 C -24.379715 1247.4163 -24.836956 1246.959 -24.836956 1246.395 L -24.836956 1234.1066 C -24.836956 1233.5426 -24.379715 1233.0853 -23.81568 1233.0853 Z" fill="white"/>
        </g>
        <g id="Graphic_187">
          <path d="M -17.468778 1228.9475 L -17.468778 1228.9475 C -16.904742 1228.9475 -16.4475 1229.4047 -16.4475 1229.9688 L -16.4475 1250.5329 C -16.4475 1251.0969 -16.904742 1251.5541 -17.468778 1251.5541 L -17.468778 1251.5541 C -18.032813 1251.5541 -18.490054 1251.0969 -18.490054 1250.5329 L -18.490054 1229.9688 C -18.490054 1229.4047 -18.032813 1228.9475 -17.468778 1228.9475 Z" fill="white"/>
        </g>
        <g id="Graphic_186">
          <path d="M -4.774975 1224.8097 L -4.774975 1224.8097 C -4.2109395 1224.8097 -3.7536983 1225.2669 -3.7536983 1225.831 L -3.7536983 1254.6707 C -3.7536983 1255.2347 -4.2109395 1255.692 -4.774975 1255.692 L -4.774975 1255.692 C -5.339011 1255.692 -5.796252 1255.2347 -5.796252 1254.6707 L -5.796252 1225.831 C -5.796252 1225.2669 -5.339011 1224.8097 -4.774975 1224.8097 Z" fill="white"/>
        </g>
        <g id="Graphic_185">
          <path d="M 7.918827 1223.9014 L 7.918827 1223.9014 C 8.482863 1223.9014 8.940104 1224.3586 8.940104 1224.9227 L 8.940104 1255.579 C 8.940104 1256.143 8.482863 1256.6003 7.918827 1256.6003 L 7.918827 1256.6003 C 7.354792 1256.6003 6.8975506 1256.143 6.8975506 1255.579 L 6.8975506 1224.9227 C 6.8975506 1224.3586 7.354792 1223.9014 7.918827 1223.9014 Z" fill="white"/>
        </g>
        <g id="Graphic_184">
          <path d="M 1.5719261 1232.7321 L 1.5719261 1232.7321 C 2.1359617 1232.7321 2.593203 1233.1893 2.593203 1233.7534 L 2.593203 1246.7483 C 2.593203 1247.3123 2.1359617 1247.7695 1.5719261 1247.7695 L 1.5719261 1247.7695 C 1.0078905 1247.7695 .5506493 1247.3123 .5506493 1246.7483 L .5506493 1233.7534 C .5506493 1233.1893 1.0078905 1232.7321 1.5719261 1232.7321 Z" fill="white"/>
        </g>
        <g id="Graphic_183">
          <path d="M 14.265729 1236.6795 L 14.265729 1236.6795 C 14.829764 1236.6795 15.287005 1237.1367 15.287005 1237.7008 L 15.287005 1242.8009 C 15.287005 1243.3649 14.829764 1243.8221 14.265729 1243.8221 L 14.265729 1243.8221 C 13.701693 1243.8221 13.244452 1243.3649 13.244452 1242.8009 L 13.244452 1237.7008 C 13.244452 1237.1367 13.701693 1236.6795 14.265729 1236.6795 Z" fill="white"/>
        </g>
      </g>
      <g id="Graphic_181">
        <text transform="translate(27.952128 1222.7508)" fill="white">
          <tspan font-family="Montserrat" font-weight="bold" font-size="28.596" fill="white" x="0" y="28" xml:space="preserve">LYRION</tspan>
        </text>
      </g>
      <g id="Graphic_180">
        <path d="M 276.85837 1240.2508 L 276.85837 1240.2508 C 276.85837 1246.326 271.9335 1251.2508 265.85837 1251.2508 L 157.7483 1251.2508 C 151.67317 1251.2508 146.7483 1246.326 146.7483 1240.2508 L 146.7483 1240.2508 C 146.7483 1234.1757 151.67317 1229.2508 157.7483 1229.2508 L 265.85837 1229.2508 C 271.9335 1229.2508 276.85837 1234.1757 276.85837 1240.2508 Z" stroke="white" stroke-linecap="round" stroke-linejoin="round" stroke-width="2"/>
      </g>
      <g id="Graphic_179">
        <text transform="translate(151 1230.2508)" fill="white">
          <tspan font-family="Montserrat" font-size="17" fill="white" x="5.828804" y="16" xml:space="preserve">COMMUNITY</tspan>
        </text>
      </g>
    </g>
  </g>
</svg>
