<?xml version="1.0" encoding="UTF-8" standalone="no"?>
<!DOCTYPE svg PUBLIC "-//W3C//DTD SVG 1.1//EN" "http://www.w3.org/Graphics/SVG/1.1/DTD/svg11.dtd">
<svg xmlns:dc="http://purl.org/dc/elements/1.1/" version="1.1" xmlns:xl="http://www.w3.org/1999/xlink" xmlns="http://www.w3.org/2000/svg" viewBox="420.12234 1217.2497 344.2535 44.00218" width="344.2535" height="44.00218">
  <defs/>
  <g id="Icon" fill-opacity="1" stroke-dasharray="none" stroke-opacity="1" stroke="none" fill="none">
    <title>Icon</title>
    <g id="Icon_Calque_1">
      <title>Calque 1</title>
      <g id="Group_238">
        <g id="Graphic_248">
          <path d="M 421.1436 1235.7185 L 421.1436 1235.7185 C 421.70765 1235.7185 422.1649 1236.1758 422.1649 1236.7398 L 422.1649 1241.7618 C 422.1649 1242.3259 421.70765 1242.7831 421.1436 1242.7831 L 421.1436 1242.7831 C 420.5796 1242.7831 420.12234 1242.3259 420.12234 1241.7618 L 420.12234 1236.7398 C 420.12234 1236.1758 420.5796 1235.7185 421.1436 1235.7185 Z" fill="white"/>
        </g>
        <g id="Graphic_247">
          <path d="M 427.4905 1227.9475 L 427.4905 1227.9475 C 428.05455 1227.9475 428.5118 1228.4047 428.5118 1228.9688 L 428.5118 1249.5329 C 428.5118 1250.0969 428.05455 1250.5541 427.4905 1250.5541 L 427.4905 1250.5541 C 426.9265 1250.5541 426.46924 1250.0969 426.46924 1249.5329 L 426.46924 1228.9688 C 426.46924 1228.4047 426.9265 1227.9475 427.4905 1227.9475 Z" fill="white"/>
        </g>
        <g id="Graphic_246">
          <path d="M 433.8374 1220.1765 L 433.8374 1220.1765 C 434.40146 1220.1765 434.8587 1220.6337 434.8587 1221.1978 L 434.8587 1257.3039 C 434.8587 1257.8679 434.40146 1258.3252 433.8374 1258.3252 L 433.8374 1258.3252 C 433.2734 1258.3252 432.81614 1257.8679 432.81614 1257.3039 L 432.81614 1221.1978 C 432.81614 1220.6337 433.2734 1220.1765 433.8374 1220.1765 Z" fill="white"/>
        </g>
        <g id="Graphic_245">
          <path d="M 452.8781 1217.2497 L 452.8781 1217.2497 C 453.44216 1217.2497 453.8994 1217.707 453.8994 1218.271 L 453.8994 1260.2306 C 453.8994 1260.7947 453.44216 1261.2519 452.8781 1261.2519 L 452.8781 1261.2519 C 452.3141 1261.2519 451.85685 1260.7947 451.85685 1260.2306 L 451.85685 1218.271 C 451.85685 1217.707 452.3141 1217.2497 452.8781 1217.2497 Z" fill="white"/>
        </g>
        <g id="Graphic_244">
          <path d="M 440.1843 1232.0853 L 440.1843 1232.0853 C 440.74836 1232.0853 441.2056 1232.5426 441.2056 1233.1066 L 441.2056 1245.395 C 441.2056 1245.959 440.74836 1246.4163 440.1843 1246.4163 L 440.1843 1246.4163 C 439.6203 1246.4163 439.16304 1245.959 439.16304 1245.395 L 439.16304 1233.1066 C 439.16304 1232.5426 439.6203 1232.0853 440.1843 1232.0853 Z" fill="white"/>
        </g>
        <g id="Graphic_243">
          <path d="M 446.5312 1227.9475 L 446.5312 1227.9475 C 447.09526 1227.9475 447.5525 1228.4047 447.5525 1228.9688 L 447.5525 1249.5329 C 447.5525 1250.0969 447.09526 1250.5541 446.5312 1250.5541 L 446.5312 1250.5541 C 445.9672 1250.5541 445.50995 1250.0969 445.50995 1249.5329 L 445.50995 1228.9688 C 445.50995 1228.4047 445.9672 1227.9475 446.5312 1227.9475 Z" fill="white"/>
        </g>
        <g id="Graphic_242">
          <path d="M 459.225 1223.8097 L 459.225 1223.8097 C 459.78906 1223.8097 460.2463 1224.2669 460.2463 1224.831 L 460.2463 1253.6707 C 460.2463 1254.2347 459.78906 1254.692 459.225 1254.692 L 459.225 1254.692 C 458.661 1254.692 458.20375 1254.2347 458.20375 1253.6707 L 458.20375 1224.831 C 458.20375 1224.2669 458.661 1223.8097 459.225 1223.8097 Z" fill="white"/>
        </g>
        <g id="Graphic_241">
          <path d="M 471.9188 1222.9014 L 471.9188 1222.9014 C 472.48286 1222.9014 472.9401 1223.3586 472.9401 1223.9227 L 472.9401 1254.579 C 472.9401 1255.143 472.48286 1255.6003 471.9188 1255.6003 L 471.9188 1255.6003 C 471.3548 1255.6003 470.89755 1255.143 470.89755 1254.579 L 470.89755 1223.9227 C 470.89755 1223.3586 471.3548 1222.9014 471.9188 1222.9014 Z" fill="white"/>
        </g>
        <g id="Graphic_240">
          <path d="M 465.5719 1231.7321 L 465.5719 1231.7321 C 466.13596 1231.7321 466.5932 1232.1893 466.5932 1232.7534 L 466.5932 1245.7483 C 466.5932 1246.3123 466.13596 1246.7695 465.5719 1246.7695 L 465.5719 1246.7695 C 465.0079 1246.7695 464.55065 1246.3123 464.55065 1245.7483 L 464.55065 1232.7534 C 464.55065 1232.1893 465.0079 1231.7321 465.5719 1231.7321 Z" fill="white"/>
        </g>
        <g id="Graphic_239">
          <path d="M 478.26573 1235.6795 L 478.26573 1235.6795 C 478.82976 1235.6795 479.287 1236.1367 479.287 1236.7008 L 479.287 1241.8009 C 479.287 1242.3649 478.82976 1242.8221 478.26573 1242.8221 L 478.26573 1242.8221 C 477.7017 1242.8221 477.24445 1242.3649 477.24445 1241.8009 L 477.24445 1236.7008 C 477.24445 1236.1367 477.7017 1235.6795 478.26573 1235.6795 Z" fill="white"/>
        </g>
      </g>
      <g id="Graphic_249">
        <text transform="translate(491.9521 1221.7508)" fill="white">
          <tspan font-family="Montserrat" font-weight="bold" font-size="28.596" fill="white" x="0" y="28" xml:space="preserve">LYRION</tspan>
        </text>
      </g>
      <g id="Graphic_253">
        <path d="M 763.37585 1239.2508 L 763.37585 1239.2508 C 763.37585 1245.326 758.451 1250.2508 752.37585 1250.2508 L 622.62415 1250.2508 C 616.549 1250.2508 611.62415 1245.326 611.62415 1239.2508 L 611.62415 1239.2508 C 611.62415 1233.1757 616.549 1228.2508 622.62415 1228.2508 L 752.37585 1228.2508 C 758.451 1228.2508 763.37585 1233.1757 763.37585 1239.2508 Z" stroke="white" stroke-linecap="round" stroke-linejoin="round" stroke-width="2"/>
      </g>
      <g id="Graphic_252">
        <text transform="translate(617.5 1229.2508)" fill="white">
          <tspan font-family="Montserrat" font-size="17" fill="white" x="3.870652" y="16" xml:space="preserve">MUSIC SERVER</tspan>
        </text>
      </g>
    </g>
  </g>
</svg>
