<?xml version="1.0" encoding="UTF-8" standalone="no"?>
<!DOCTYPE svg PUBLIC "-//W3C//DTD SVG 1.1//EN" "http://www.w3.org/Graphics/SVG/1.1/DTD/svg11.dtd">
<svg xmlns:dc="http://purl.org/dc/elements/1.1/" version="1.1" xmlns:xl="http://www.w3.org/1999/xlink" xmlns="http://www.w3.org/2000/svg" viewBox="420.12234 1109 341.5018 44.00218" width="341.5018" height="44.00218">
  <defs/>
  <g id="Icon" fill-opacity="1" stroke-dasharray="none" stroke-opacity="1" stroke="none" fill="none">
    <title>Icon</title>
    <g id="Icon_Calque_1">
      <title>Calque 1</title>
      <g id="Group_227">
        <g id="Graphic_237">
          <path d="M 421.1436 1127.4688 L 421.1436 1127.4688 C 421.70765 1127.4688 422.1649 1127.926 422.1649 1128.4901 L 422.1649 1133.5121 C 422.1649 1134.0761 421.70765 1134.5334 421.1436 1134.5334 L 421.1436 1134.5334 C 420.5796 1134.5334 420.12234 1134.0761 420.12234 1133.5121 L 420.12234 1128.4901 C 420.12234 1127.926 420.5796 1127.4688 421.1436 1127.4688 Z" fill="#e3fdc4"/>
        </g>
        <g id="Graphic_236">
          <path d="M 427.4905 1119.6978 L 427.4905 1119.6978 C 428.05455 1119.6978 428.5118 1120.155 428.5118 1120.719 L 428.5118 1141.2831 C 428.5118 1141.8472 428.05455 1142.3044 427.4905 1142.3044 L 427.4905 1142.3044 C 426.9265 1142.3044 426.46924 1141.8472 426.46924 1141.2831 L 426.46924 1120.719 C 426.46924 1120.155 426.9265 1119.6978 427.4905 1119.6978 Z" fill="#e3fdc4"/>
        </g>
        <g id="Graphic_235">
          <path d="M 433.8374 1111.9268 L 433.8374 1111.9268 C 434.40146 1111.9268 434.8587 1112.384 434.8587 1112.948 L 434.8587 1149.0542 C 434.8587 1149.6182 434.40146 1150.0754 433.8374 1150.0754 L 433.8374 1150.0754 C 433.2734 1150.0754 432.81614 1149.6182 432.81614 1149.0542 L 432.81614 1112.948 C 432.81614 1112.384 433.2734 1111.9268 433.8374 1111.9268 Z" fill="#e3fdc4"/>
        </g>
        <g id="Graphic_234">
          <path d="M 452.8781 1109 L 452.8781 1109 C 453.44216 1109 453.8994 1109.4572 453.8994 1110.0213 L 453.8994 1151.9809 C 453.8994 1152.545 453.44216 1153.0022 452.8781 1153.0022 L 452.8781 1153.0022 C 452.3141 1153.0022 451.85685 1152.545 451.85685 1151.9809 L 451.85685 1110.0213 C 451.85685 1109.4572 452.3141 1109 452.8781 1109 Z" fill="#e3fdc4"/>
        </g>
        <g id="Graphic_233">
          <path d="M 440.1843 1123.8356 L 440.1843 1123.8356 C 440.74836 1123.8356 441.2056 1124.2928 441.2056 1124.8569 L 441.2056 1137.1453 C 441.2056 1137.7093 440.74836 1138.1666 440.1843 1138.1666 L 440.1843 1138.1666 C 439.6203 1138.1666 439.16304 1137.7093 439.16304 1137.1453 L 439.16304 1124.8569 C 439.16304 1124.2928 439.6203 1123.8356 440.1843 1123.8356 Z" fill="#e3fdc4"/>
        </g>
        <g id="Graphic_232">
          <path d="M 446.5312 1119.6978 L 446.5312 1119.6978 C 447.09526 1119.6978 447.5525 1120.155 447.5525 1120.719 L 447.5525 1141.2831 C 447.5525 1141.8472 447.09526 1142.3044 446.5312 1142.3044 L 446.5312 1142.3044 C 445.9672 1142.3044 445.50995 1141.8472 445.50995 1141.2831 L 445.50995 1120.719 C 445.50995 1120.155 445.9672 1119.6978 446.5312 1119.6978 Z" fill="#e3fdc4"/>
        </g>
        <g id="Graphic_231">
          <path d="M 459.225 1115.56 L 459.225 1115.56 C 459.78906 1115.56 460.2463 1116.0172 460.2463 1116.5812 L 460.2463 1145.421 C 460.2463 1145.985 459.78906 1146.4422 459.225 1146.4422 L 459.225 1146.4422 C 458.661 1146.4422 458.20375 1145.985 458.20375 1145.421 L 458.20375 1116.5812 C 458.20375 1116.0172 458.661 1115.56 459.225 1115.56 Z" fill="#e3fdc4"/>
        </g>
        <g id="Graphic_230">
          <path d="M 471.9188 1114.6517 L 471.9188 1114.6517 C 472.48286 1114.6517 472.9401 1115.1089 472.9401 1115.6729 L 472.9401 1146.3292 C 472.9401 1146.8933 472.48286 1147.3505 471.9188 1147.3505 L 471.9188 1147.3505 C 471.3548 1147.3505 470.89755 1146.8933 470.89755 1146.3292 L 470.89755 1115.6729 C 470.89755 1115.1089 471.3548 1114.6517 471.9188 1114.6517 Z" fill="#e3fdc4"/>
        </g>
        <g id="Graphic_229">
          <path d="M 465.5719 1123.4824 L 465.5719 1123.4824 C 466.13596 1123.4824 466.5932 1123.9396 466.5932 1124.5036 L 466.5932 1137.4985 C 466.5932 1138.0626 466.13596 1138.5198 465.5719 1138.5198 L 465.5719 1138.5198 C 465.0079 1138.5198 464.55065 1138.0626 464.55065 1137.4985 L 464.55065 1124.5036 C 464.55065 1123.9396 465.0079 1123.4824 465.5719 1123.4824 Z" fill="#e3fdc4"/>
        </g>
        <g id="Graphic_228">
          <path d="M 478.26573 1127.4298 L 478.26573 1127.4298 C 478.82976 1127.4298 479.287 1127.887 479.287 1128.451 L 479.287 1133.5511 C 479.287 1134.1152 478.82976 1134.5724 478.26573 1134.5724 L 478.26573 1134.5724 C 477.7017 1134.5724 477.24445 1134.1152 477.24445 1133.5511 L 477.24445 1128.451 C 477.24445 1127.887 477.7017 1127.4298 478.26573 1127.4298 Z" fill="#e3fdc4"/>
        </g>
      </g>
      <g id="Graphic_226">
        <text transform="translate(491.9521 1113.5011)" fill="#e3fdc4">
          <tspan font-family="Montserrat" font-weight="bold" font-size="28.596" fill="#e3fdc4" x="0" y="28" xml:space="preserve">LYRION</tspan>
        </text>
      </g>
      <g id="Graphic_225">
        <path d="M 760.5 1131.0011 L 760.5 1131.0011 C 760.5 1137.0762 755.5751 1142.0011 749.5 1142.0011 L 621.7483 1142.0011 C 615.6732 1142.0011 610.7483 1137.0762 610.7483 1131.0011 L 610.7483 1131.0011 C 610.7483 1124.926 615.6732 1120.0011 621.7483 1120.0011 L 749.5 1120.0011 C 755.5751 1120.0011 760.5 1124.926 760.5 1131.0011 Z" stroke="#e2fdc4" stroke-linecap="round" stroke-linejoin="round" stroke-width="2"/>
      </g>
      <g id="Graphic_224">
        <text transform="translate(616.62415 1121.0011)" fill="#e2fdc4">
          <tspan font-family="Montserrat" font-size="17" fill="#e2fdc4" x="3.870652" y="16" xml:space="preserve">MUSIC SERVER</tspan>
        </text>
      </g>
    </g>
  </g>
</svg>
